<?xml version="1.0" encoding="utf-8" standalone="no"?>
<!DOCTYPE svg PUBLIC "-//W3C//DTD SVG 1.1//EN"
  "http://www.w3.org/Graphics/SVG/1.1/DTD/svg11.dtd">
<!-- Created with matplotlib (http://matplotlib.org/) -->
<svg height="582pt" version="1.1" viewBox="0 0 859 582" width="859pt" xmlns="http://www.w3.org/2000/svg" xmlns:xlink="http://www.w3.org/1999/xlink">
 <defs>
  <style type="text/css">
*{stroke-linecap:butt;stroke-linejoin:round;stroke-miterlimit:100000;}
  </style>
 </defs>
 <g id="figure_1">
  <g id="patch_1">
   <path d="M 0 582.3 
L 859.5 582.3 
L 859.5 0 
L 0 0 
z
" style="fill:#ffffff;"/>
  </g>
  <g id="axes_1">
   <g id="patch_2">
    <path d="M 107.4375 269.975455 
L 773.55 269.975455 
L 773.55 58.23 
L 107.4375 58.23 
z
" style="fill:#ffffff;"/>
   </g>
   <g id="line2d_1">
    <path clip-path="url(#p718eb521b9)" d="M 114.098625 269.975455 
L 120.75975 269.975455 
L 127.420875 269.975455 
L 134.082 269.975455 
L 140.743125 269.975455 
L 147.40425 269.6049 
L 154.065375 268.810855 
L 160.7265 267.328636 
L 167.387625 261.929127 
L 174.04875 257.641282 
L 180.709875 248.747973 
L 187.371 241.760373 
L 194.032125 236.307927 
L 200.69325 236.731418 
L 207.354375 235.2492 
L 214.0155 233.290555 
L 220.676625 220.850509 
L 227.33775 220.479955 
L 233.998875 213.651164 
L 240.66 187.024173 
L 247.321125 190.517973 
L 253.98225 169.872791 
L 260.643375 150.8157 
L 267.3045 143.404609 
L 273.965625 159.497264 
L 280.62675 142.240009 
L 287.287875 95.179582 
L 293.949 128.6883 
L 300.610125 88.086109 
L 307.27125 138.640336 
L 313.932375 107.990182 
L 320.5935 107.249073 
L 327.254625 134.670109 
L 333.91575 125.141564 
L 340.576875 127.100209 
L 347.238 91.474036 
L 353.899125 128.6883 
L 360.56025 111.007555 
L 367.221375 85.492227 
L 373.8825 111.2193 
L 380.543625 112.489773 
L 387.20475 110.584064 
L 393.865875 95.073709 
L 400.527 107.778436 
L 407.188125 82.474855 
L 413.84925 132.076227 
L 420.510375 117.677536 
L 427.1715 112.436836 
L 433.832625 108.413673 
L 440.49375 86.656827 
L 447.154875 101.9025 
L 453.816 86.921509 
L 460.477125 78.716373 
L 467.13825 109.684145 
L 473.799375 99.837982 
L 480.4605 104.178764 
L 487.121625 96.555927 
L 493.78275 72.099327 
L 500.443875 75.328445 
L 507.105 92.850382 
L 513.766125 112.595645 
L 520.42725 70.246555 
L 527.088375 107.619627 
L 533.7495 79.086927 
L 540.410625 76.2813 
L 547.07175 103.014164 
L 553.732875 105.872727 
L 560.394 100.7379 
L 567.055125 98.4087 
L 573.71625 93.168 
L 580.377375 111.060491 
L 587.0385 81.363191 
L 593.699625 83.904136 
L 600.36075 99.785045 
L 607.021875 96.820609 
L 613.683 89.144836 
L 620.344125 95.867755 
L 627.00525 79.033991 
L 633.666375 99.043936 
L 640.3275 72.628691 
L 646.988625 65.588155 
L 653.64975 93.168 
L 660.310875 64.423555 
L 666.972 87.715555 
L 673.633125 105.713918 
L 680.29425 83.374773 
L 686.955375 73.581545 
L 693.6165 73.9521 
L 700.277625 76.228364 
L 706.93875 103.384718 
L 713.599875 72.7875 
L 720.261 90.468245 
L 726.922125 102.643609 
L 733.58325 104.178764 
L 740.244375 71.728773 
L 746.9055 98.249891 
L 753.566625 72.522818 
L 760.22775 77.287091 
L 766.888875 77.710582 
L 773.55 69.452509 
" style="fill:none;stroke:#0000ff;stroke-linecap:square;"/>
   </g>
   <g id="line2d_2">
    <path clip-path="url(#p718eb521b9)" d="M 114.098625 269.975455 
L 120.75975 269.975455 
L 127.420875 269.975455 
L 134.082 269.975455 
L 140.743125 269.975455 
L 147.40425 269.975455 
L 154.065375 269.975455 
L 160.7265 269.975455 
L 167.387625 269.975455 
L 174.04875 269.975455 
L 180.709875 269.975455 
L 187.371 269.975455 
L 194.032125 269.975455 
L 200.69325 269.975455 
L 207.354375 269.975455 
L 214.0155 269.975455 
L 220.676625 269.975455 
L 227.33775 269.975455 
L 233.998875 269.975455 
L 240.66 269.975455 
L 247.321125 269.975455 
L 253.98225 269.975455 
L 260.643375 269.922518 
L 267.3045 269.922518 
L 273.965625 267.328636 
L 280.62675 185.594891 
L 287.287875 192.847173 
L 293.949 180.671809 
L 300.610125 151.662682 
L 307.27125 139.222636 
L 313.932375 162.144082 
L 320.5935 168.496445 
L 327.254625 117.836345 
L 333.91575 122.071255 
L 340.576875 157.168064 
L 347.238 138.428591 
L 353.899125 105.078682 
L 360.56025 146.316109 
L 367.221375 134.352491 
L 373.8825 109.260655 
L 380.543625 140.969536 
L 387.20475 140.175491 
L 393.865875 125.459182 
L 400.527 101.955436 
L 407.188125 131.335118 
L 413.84925 99.5733 
L 420.510375 122.653555 
L 427.1715 136.417009 
L 433.832625 120.006736 
L 440.49375 106.825582 
L 447.154875 93.644427 
L 453.816 129.005918 
L 460.477125 95.603073 
L 467.13825 107.354945 
L 473.799375 130.223455 
L 480.4605 130.4352 
L 487.121625 105.449236 
L 493.78275 126.041482 
L 500.443875 100.049727 
L 507.105 129.747027 
L 513.766125 122.335936 
L 520.42725 95.656009 
L 527.088375 97.614655 
L 533.7495 106.296218 
L 540.410625 96.238309 
L 547.07175 111.113427 
L 553.732875 99.785045 
L 560.394 122.177127 
L 567.055125 136.734627 
L 573.71625 96.767673 
L 580.377375 99.043936 
L 587.0385 92.109273 
L 593.699625 86.286273 
L 600.36075 91.685782 
L 607.021875 101.3202 
L 613.683 93.220936 
L 620.344125 122.494745 
L 627.00525 98.673382 
L 633.666375 82.474855 
L 640.3275 79.404545 
L 646.988625 84.010009 
L 653.64975 94.120855 
L 660.310875 87.662618 
L 666.972 84.645245 
L 673.633125 81.151445 
L 680.29425 83.904136 
L 686.955375 90.997609 
L 693.6165 106.825582 
L 700.277625 95.338391 
L 706.93875 97.773464 
L 713.599875 91.950464 
L 720.261 99.943855 
L 726.922125 102.061309 
L 733.58325 102.061309 
L 740.244375 100.367345 
L 746.9055 120.483164 
L 753.566625 75.063764 
L 760.22775 94.067918 
L 766.888875 85.651036 
L 773.55 102.273055 
" style="fill:none;stroke:#008000;stroke-linecap:square;"/>
   </g>
   <g id="line2d_3">
    <path clip-path="url(#p718eb521b9)" d="M 114.098625 269.975455 
L 120.75975 269.975455 
L 127.420875 269.975455 
L 134.082 269.975455 
L 140.743125 269.975455 
L 147.40425 269.975455 
L 154.065375 269.975455 
L 160.7265 269.975455 
L 167.387625 269.975455 
L 174.04875 269.922518 
L 180.709875 269.763709 
L 187.371 269.234345 
L 194.032125 265.105309 
L 200.69325 261.823255 
L 207.354375 267.699191 
L 214.0155 263.940709 
L 220.676625 264.628882 
L 227.33775 263.464282 
L 233.998875 253.088755 
L 240.66 244.089573 
L 247.321125 215.345127 
L 253.98225 212.592436 
L 260.643375 186.388936 
L 267.3045 161.773527 
L 273.965625 166.378991 
L 280.62675 159.920755 
L 287.287875 174.001827 
L 293.949 169.925727 
L 300.610125 139.381445 
L 307.27125 132.976145 
L 313.932375 134.723045 
L 320.5935 129.8529 
L 327.254625 126.782591 
L 333.91575 129.799964 
L 340.576875 131.282182 
L 347.238 117.889282 
L 353.899125 99.520364 
L 360.56025 132.446782 
L 367.221375 128.952982 
L 373.8825 94.438473 
L 380.543625 85.0158 
L 387.20475 108.096055 
L 393.865875 136.522882 
L 400.527 96.132436 
L 407.188125 111.272236 
L 413.84925 141.710645 
L 420.510375 104.337573 
L 427.1715 119.9538 
L 433.832625 95.973627 
L 440.49375 80.516209 
L 447.154875 80.833827 
L 453.816 121.1184 
L 460.477125 90.097691 
L 467.13825 79.7751 
L 473.799375 122.388873 
L 480.4605 80.9397 
L 487.121625 94.438473 
L 493.78275 92.903318 
L 500.443875 110.266445 
L 507.105 80.886764 
L 513.766125 89.991818 
L 520.42725 86.286273 
L 527.088375 89.0919 
L 533.7495 95.444264 
L 540.410625 83.374773 
L 547.07175 79.669227 
L 553.732875 94.3326 
L 560.394 112.489773 
L 567.055125 96.450055 
L 573.71625 89.780073 
L 580.377375 83.8512 
L 587.0385 113.5485 
L 593.699625 91.262291 
L 600.36075 91.950464 
L 607.021875 89.938882 
L 613.683 105.343364 
L 620.344125 109.207718 
L 627.00525 117.412855 
L 633.666375 96.344182 
L 640.3275 84.062945 
L 646.988625 81.045573 
L 653.64975 80.145655 
L 660.310875 86.233336 
L 666.972 105.713918 
L 673.633125 81.151445 
L 680.29425 80.9397 
L 686.955375 98.567509 
L 693.6165 100.208536 
L 700.277625 96.026564 
L 706.93875 80.780891 
L 713.599875 81.257318 
L 720.261 105.449236 
L 726.922125 91.632845 
L 733.58325 76.440109 
L 740.244375 78.822245 
L 746.9055 90.732927 
L 753.566625 88.297855 
L 760.22775 101.637818 
L 766.888875 84.168818 
L 773.55 105.184555 
" style="fill:none;stroke:#ff0000;stroke-linecap:square;"/>
   </g>
   <g id="patch_3">
    <path d="M 107.4375 58.23 
L 773.55 58.23 
" style="fill:none;stroke:#000000;stroke-linecap:square;stroke-linejoin:miter;"/>
   </g>
   <g id="patch_4">
    <path d="M 773.55 269.975455 
L 773.55 58.23 
" style="fill:none;stroke:#000000;stroke-linecap:square;stroke-linejoin:miter;"/>
   </g>
   <g id="patch_5">
    <path d="M 107.4375 269.975455 
L 773.55 269.975455 
" style="fill:none;stroke:#000000;stroke-linecap:square;stroke-linejoin:miter;"/>
   </g>
   <g id="patch_6">
    <path d="M 107.4375 269.975455 
L 107.4375 58.23 
" style="fill:none;stroke:#000000;stroke-linecap:square;stroke-linejoin:miter;"/>
   </g>
   <g id="matplotlib.axis_1">
    <g id="xtick_1">
     <g id="line2d_4">
      <defs>
       <path d="M 0 0 
L 0 -4 
" id="m650a4d56d7" style="stroke:#000000;stroke-width:0.5;"/>
      </defs>
      <g>
       <use style="stroke:#000000;stroke-width:0.5;" x="107.4375" xlink:href="#m650a4d56d7" y="269.975454545"/>
      </g>
     </g>
     <g id="line2d_5">
      <defs>
       <path d="M 0 0 
L 0 4 
" id="meb63d1b80a" style="stroke:#000000;stroke-width:0.5;"/>
      </defs>
      <g>
       <use style="stroke:#000000;stroke-width:0.5;" x="107.4375" xlink:href="#meb63d1b80a" y="58.23"/>
      </g>
     </g>
     <g id="text_1">
      <!-- 0 -->
      <defs>
       <path d="M 31.78125 66.40625 
Q 24.171875 66.40625 20.328125 58.90625 
Q 16.5 51.421875 16.5 36.375 
Q 16.5 21.390625 20.328125 13.890625 
Q 24.171875 6.390625 31.78125 6.390625 
Q 39.453125 6.390625 43.28125 13.890625 
Q 47.125 21.390625 47.125 36.375 
Q 47.125 51.421875 43.28125 58.90625 
Q 39.453125 66.40625 31.78125 66.40625 
M 31.78125 74.21875 
Q 44.046875 74.21875 50.515625 64.515625 
Q 56.984375 54.828125 56.984375 36.375 
Q 56.984375 17.96875 50.515625 8.265625 
Q 44.046875 -1.421875 31.78125 -1.421875 
Q 19.53125 -1.421875 13.0625 8.265625 
Q 6.59375 17.96875 6.59375 36.375 
Q 6.59375 54.828125 13.0625 64.515625 
Q 19.53125 74.21875 31.78125 74.21875 
" id="BitstreamVeraSans-Roman-30"/>
      </defs>
      <g transform="translate(103.62 283.093579545)scale(0.12 -0.12)">
       <use xlink:href="#BitstreamVeraSans-Roman-30"/>
      </g>
     </g>
    </g>
    <g id="xtick_2">
     <g id="line2d_6">
      <g>
       <use style="stroke:#000000;stroke-width:0.5;" x="240.66" xlink:href="#m650a4d56d7" y="269.975454545"/>
      </g>
     </g>
     <g id="line2d_7">
      <g>
       <use style="stroke:#000000;stroke-width:0.5;" x="240.66" xlink:href="#meb63d1b80a" y="58.23"/>
      </g>
     </g>
     <g id="text_2">
      <!-- 20 -->
      <defs>
       <path d="M 19.1875 8.296875 
L 53.609375 8.296875 
L 53.609375 0 
L 7.328125 0 
L 7.328125 8.296875 
Q 12.9375 14.109375 22.625 23.890625 
Q 32.328125 33.6875 34.8125 36.53125 
Q 39.546875 41.84375 41.421875 45.53125 
Q 43.3125 49.21875 43.3125 52.78125 
Q 43.3125 58.59375 39.234375 62.25 
Q 35.15625 65.921875 28.609375 65.921875 
Q 23.96875 65.921875 18.8125 64.3125 
Q 13.671875 62.703125 7.8125 59.421875 
L 7.8125 69.390625 
Q 13.765625 71.78125 18.9375 73 
Q 24.125 74.21875 28.421875 74.21875 
Q 39.75 74.21875 46.484375 68.546875 
Q 53.21875 62.890625 53.21875 53.421875 
Q 53.21875 48.921875 51.53125 44.890625 
Q 49.859375 40.875 45.40625 35.40625 
Q 44.1875 33.984375 37.640625 27.21875 
Q 31.109375 20.453125 19.1875 8.296875 
" id="BitstreamVeraSans-Roman-32"/>
      </defs>
      <g transform="translate(233.025 283.093579545)scale(0.12 -0.12)">
       <use xlink:href="#BitstreamVeraSans-Roman-32"/>
       <use x="63.623046875" xlink:href="#BitstreamVeraSans-Roman-30"/>
      </g>
     </g>
    </g>
    <g id="xtick_3">
     <g id="line2d_8">
      <g>
       <use style="stroke:#000000;stroke-width:0.5;" x="373.8825" xlink:href="#m650a4d56d7" y="269.975454545"/>
      </g>
     </g>
     <g id="line2d_9">
      <g>
       <use style="stroke:#000000;stroke-width:0.5;" x="373.8825" xlink:href="#meb63d1b80a" y="58.23"/>
      </g>
     </g>
     <g id="text_3">
      <!-- 40 -->
      <defs>
       <path d="M 37.796875 64.3125 
L 12.890625 25.390625 
L 37.796875 25.390625 
z
M 35.203125 72.90625 
L 47.609375 72.90625 
L 47.609375 25.390625 
L 58.015625 25.390625 
L 58.015625 17.1875 
L 47.609375 17.1875 
L 47.609375 0 
L 37.796875 0 
L 37.796875 17.1875 
L 4.890625 17.1875 
L 4.890625 26.703125 
z
" id="BitstreamVeraSans-Roman-34"/>
      </defs>
      <g transform="translate(366.2475 283.093579545)scale(0.12 -0.12)">
       <use xlink:href="#BitstreamVeraSans-Roman-34"/>
       <use x="63.623046875" xlink:href="#BitstreamVeraSans-Roman-30"/>
      </g>
     </g>
    </g>
    <g id="xtick_4">
     <g id="line2d_10">
      <g>
       <use style="stroke:#000000;stroke-width:0.5;" x="507.105" xlink:href="#m650a4d56d7" y="269.975454545"/>
      </g>
     </g>
     <g id="line2d_11">
      <g>
       <use style="stroke:#000000;stroke-width:0.5;" x="507.105" xlink:href="#meb63d1b80a" y="58.23"/>
      </g>
     </g>
     <g id="text_4">
      <!-- 60 -->
      <defs>
       <path d="M 33.015625 40.375 
Q 26.375 40.375 22.484375 35.828125 
Q 18.609375 31.296875 18.609375 23.390625 
Q 18.609375 15.53125 22.484375 10.953125 
Q 26.375 6.390625 33.015625 6.390625 
Q 39.65625 6.390625 43.53125 10.953125 
Q 47.40625 15.53125 47.40625 23.390625 
Q 47.40625 31.296875 43.53125 35.828125 
Q 39.65625 40.375 33.015625 40.375 
M 52.59375 71.296875 
L 52.59375 62.3125 
Q 48.875 64.0625 45.09375 64.984375 
Q 41.3125 65.921875 37.59375 65.921875 
Q 27.828125 65.921875 22.671875 59.328125 
Q 17.53125 52.734375 16.796875 39.40625 
Q 19.671875 43.65625 24.015625 45.921875 
Q 28.375 48.1875 33.59375 48.1875 
Q 44.578125 48.1875 50.953125 41.515625 
Q 57.328125 34.859375 57.328125 23.390625 
Q 57.328125 12.15625 50.6875 5.359375 
Q 44.046875 -1.421875 33.015625 -1.421875 
Q 20.359375 -1.421875 13.671875 8.265625 
Q 6.984375 17.96875 6.984375 36.375 
Q 6.984375 53.65625 15.1875 63.9375 
Q 23.390625 74.21875 37.203125 74.21875 
Q 40.921875 74.21875 44.703125 73.484375 
Q 48.484375 72.75 52.59375 71.296875 
" id="BitstreamVeraSans-Roman-36"/>
      </defs>
      <g transform="translate(499.47 283.093579545)scale(0.12 -0.12)">
       <use xlink:href="#BitstreamVeraSans-Roman-36"/>
       <use x="63.623046875" xlink:href="#BitstreamVeraSans-Roman-30"/>
      </g>
     </g>
    </g>
    <g id="xtick_5">
     <g id="line2d_12">
      <g>
       <use style="stroke:#000000;stroke-width:0.5;" x="640.3275" xlink:href="#m650a4d56d7" y="269.975454545"/>
      </g>
     </g>
     <g id="line2d_13">
      <g>
       <use style="stroke:#000000;stroke-width:0.5;" x="640.3275" xlink:href="#meb63d1b80a" y="58.23"/>
      </g>
     </g>
     <g id="text_5">
      <!-- 80 -->
      <defs>
       <path d="M 31.78125 34.625 
Q 24.75 34.625 20.71875 30.859375 
Q 16.703125 27.09375 16.703125 20.515625 
Q 16.703125 13.921875 20.71875 10.15625 
Q 24.75 6.390625 31.78125 6.390625 
Q 38.8125 6.390625 42.859375 10.171875 
Q 46.921875 13.96875 46.921875 20.515625 
Q 46.921875 27.09375 42.890625 30.859375 
Q 38.875 34.625 31.78125 34.625 
M 21.921875 38.8125 
Q 15.578125 40.375 12.03125 44.71875 
Q 8.5 49.078125 8.5 55.328125 
Q 8.5 64.0625 14.71875 69.140625 
Q 20.953125 74.21875 31.78125 74.21875 
Q 42.671875 74.21875 48.875 69.140625 
Q 55.078125 64.0625 55.078125 55.328125 
Q 55.078125 49.078125 51.53125 44.71875 
Q 48 40.375 41.703125 38.8125 
Q 48.828125 37.15625 52.796875 32.3125 
Q 56.78125 27.484375 56.78125 20.515625 
Q 56.78125 9.90625 50.3125 4.234375 
Q 43.84375 -1.421875 31.78125 -1.421875 
Q 19.734375 -1.421875 13.25 4.234375 
Q 6.78125 9.90625 6.78125 20.515625 
Q 6.78125 27.484375 10.78125 32.3125 
Q 14.796875 37.15625 21.921875 38.8125 
M 18.3125 54.390625 
Q 18.3125 48.734375 21.84375 45.5625 
Q 25.390625 42.390625 31.78125 42.390625 
Q 38.140625 42.390625 41.71875 45.5625 
Q 45.3125 48.734375 45.3125 54.390625 
Q 45.3125 60.0625 41.71875 63.234375 
Q 38.140625 66.40625 31.78125 66.40625 
Q 25.390625 66.40625 21.84375 63.234375 
Q 18.3125 60.0625 18.3125 54.390625 
" id="BitstreamVeraSans-Roman-38"/>
      </defs>
      <g transform="translate(632.6925 283.093579545)scale(0.12 -0.12)">
       <use xlink:href="#BitstreamVeraSans-Roman-38"/>
       <use x="63.623046875" xlink:href="#BitstreamVeraSans-Roman-30"/>
      </g>
     </g>
    </g>
    <g id="xtick_6">
     <g id="line2d_14">
      <g>
       <use style="stroke:#000000;stroke-width:0.5;" x="773.55" xlink:href="#m650a4d56d7" y="269.975454545"/>
      </g>
     </g>
     <g id="line2d_15">
      <g>
       <use style="stroke:#000000;stroke-width:0.5;" x="773.55" xlink:href="#meb63d1b80a" y="58.23"/>
      </g>
     </g>
     <g id="text_6">
      <!-- 100 -->
      <defs>
       <path d="M 12.40625 8.296875 
L 28.515625 8.296875 
L 28.515625 63.921875 
L 10.984375 60.40625 
L 10.984375 69.390625 
L 28.421875 72.90625 
L 38.28125 72.90625 
L 38.28125 8.296875 
L 54.390625 8.296875 
L 54.390625 0 
L 12.40625 0 
z
" id="BitstreamVeraSans-Roman-31"/>
      </defs>
      <g transform="translate(762.0975 283.093579545)scale(0.12 -0.12)">
       <use xlink:href="#BitstreamVeraSans-Roman-31"/>
       <use x="63.623046875" xlink:href="#BitstreamVeraSans-Roman-30"/>
       <use x="127.24609375" xlink:href="#BitstreamVeraSans-Roman-30"/>
      </g>
     </g>
    </g>
    <g id="text_7">
     <!-- Generation -->
     <defs>
      <path d="M 54.890625 33.015625 
L 54.890625 0 
L 45.90625 0 
L 45.90625 32.71875 
Q 45.90625 40.484375 42.875 44.328125 
Q 39.84375 48.1875 33.796875 48.1875 
Q 26.515625 48.1875 22.3125 43.546875 
Q 18.109375 38.921875 18.109375 30.90625 
L 18.109375 0 
L 9.078125 0 
L 9.078125 54.6875 
L 18.109375 54.6875 
L 18.109375 46.1875 
Q 21.34375 51.125 25.703125 53.5625 
Q 30.078125 56 35.796875 56 
Q 45.21875 56 50.046875 50.171875 
Q 54.890625 44.34375 54.890625 33.015625 
" id="BitstreamVeraSans-Roman-6e"/>
      <path d="M 41.109375 46.296875 
Q 39.59375 47.171875 37.8125 47.578125 
Q 36.03125 48 33.890625 48 
Q 26.265625 48 22.1875 43.046875 
Q 18.109375 38.09375 18.109375 28.8125 
L 18.109375 0 
L 9.078125 0 
L 9.078125 54.6875 
L 18.109375 54.6875 
L 18.109375 46.1875 
Q 20.953125 51.171875 25.484375 53.578125 
Q 30.03125 56 36.53125 56 
Q 37.453125 56 38.578125 55.875 
Q 39.703125 55.765625 41.0625 55.515625 
z
" id="BitstreamVeraSans-Roman-72"/>
      <path d="M 30.609375 48.390625 
Q 23.390625 48.390625 19.1875 42.75 
Q 14.984375 37.109375 14.984375 27.296875 
Q 14.984375 17.484375 19.15625 11.84375 
Q 23.34375 6.203125 30.609375 6.203125 
Q 37.796875 6.203125 41.984375 11.859375 
Q 46.1875 17.53125 46.1875 27.296875 
Q 46.1875 37.015625 41.984375 42.703125 
Q 37.796875 48.390625 30.609375 48.390625 
M 30.609375 56 
Q 42.328125 56 49.015625 48.375 
Q 55.71875 40.765625 55.71875 27.296875 
Q 55.71875 13.875 49.015625 6.21875 
Q 42.328125 -1.421875 30.609375 -1.421875 
Q 18.84375 -1.421875 12.171875 6.21875 
Q 5.515625 13.875 5.515625 27.296875 
Q 5.515625 40.765625 12.171875 48.375 
Q 18.84375 56 30.609375 56 
" id="BitstreamVeraSans-Roman-6f"/>
      <path d="M 59.515625 10.40625 
L 59.515625 29.984375 
L 43.40625 29.984375 
L 43.40625 38.09375 
L 69.28125 38.09375 
L 69.28125 6.78125 
Q 63.578125 2.734375 56.6875 0.65625 
Q 49.8125 -1.421875 42 -1.421875 
Q 24.90625 -1.421875 15.25 8.5625 
Q 5.609375 18.5625 5.609375 36.375 
Q 5.609375 54.25 15.25 64.234375 
Q 24.90625 74.21875 42 74.21875 
Q 49.125 74.21875 55.546875 72.453125 
Q 61.96875 70.703125 67.390625 67.28125 
L 67.390625 56.78125 
Q 61.921875 61.421875 55.765625 63.765625 
Q 49.609375 66.109375 42.828125 66.109375 
Q 29.4375 66.109375 22.71875 58.640625 
Q 16.015625 51.171875 16.015625 36.375 
Q 16.015625 21.625 22.71875 14.15625 
Q 29.4375 6.6875 42.828125 6.6875 
Q 48.046875 6.6875 52.140625 7.59375 
Q 56.25 8.5 59.515625 10.40625 
" id="BitstreamVeraSans-Roman-47"/>
      <path d="M 9.421875 54.6875 
L 18.40625 54.6875 
L 18.40625 0 
L 9.421875 0 
z
M 9.421875 75.984375 
L 18.40625 75.984375 
L 18.40625 64.59375 
L 9.421875 64.59375 
z
" id="BitstreamVeraSans-Roman-69"/>
      <path d="M 56.203125 29.59375 
L 56.203125 25.203125 
L 14.890625 25.203125 
Q 15.484375 15.921875 20.484375 11.0625 
Q 25.484375 6.203125 34.421875 6.203125 
Q 39.59375 6.203125 44.453125 7.46875 
Q 49.3125 8.734375 54.109375 11.28125 
L 54.109375 2.78125 
Q 49.265625 0.734375 44.1875 -0.34375 
Q 39.109375 -1.421875 33.890625 -1.421875 
Q 20.796875 -1.421875 13.15625 6.1875 
Q 5.515625 13.8125 5.515625 26.8125 
Q 5.515625 40.234375 12.765625 48.109375 
Q 20.015625 56 32.328125 56 
Q 43.359375 56 49.78125 48.890625 
Q 56.203125 41.796875 56.203125 29.59375 
M 47.21875 32.234375 
Q 47.125 39.59375 43.09375 43.984375 
Q 39.0625 48.390625 32.421875 48.390625 
Q 24.90625 48.390625 20.390625 44.140625 
Q 15.875 39.890625 15.1875 32.171875 
z
" id="BitstreamVeraSans-Roman-65"/>
      <path d="M 18.3125 70.21875 
L 18.3125 54.6875 
L 36.8125 54.6875 
L 36.8125 47.703125 
L 18.3125 47.703125 
L 18.3125 18.015625 
Q 18.3125 11.328125 20.140625 9.421875 
Q 21.96875 7.515625 27.59375 7.515625 
L 36.8125 7.515625 
L 36.8125 0 
L 27.59375 0 
Q 17.1875 0 13.234375 3.875 
Q 9.28125 7.765625 9.28125 18.015625 
L 9.28125 47.703125 
L 2.6875 47.703125 
L 2.6875 54.6875 
L 9.28125 54.6875 
L 9.28125 70.21875 
z
" id="BitstreamVeraSans-Roman-74"/>
      <path d="M 34.28125 27.484375 
Q 23.390625 27.484375 19.1875 25 
Q 14.984375 22.515625 14.984375 16.5 
Q 14.984375 11.71875 18.140625 8.90625 
Q 21.296875 6.109375 26.703125 6.109375 
Q 34.1875 6.109375 38.703125 11.40625 
Q 43.21875 16.703125 43.21875 25.484375 
L 43.21875 27.484375 
z
M 52.203125 31.203125 
L 52.203125 0 
L 43.21875 0 
L 43.21875 8.296875 
Q 40.140625 3.328125 35.546875 0.953125 
Q 30.953125 -1.421875 24.3125 -1.421875 
Q 15.921875 -1.421875 10.953125 3.296875 
Q 6 8.015625 6 15.921875 
Q 6 25.140625 12.171875 29.828125 
Q 18.359375 34.515625 30.609375 34.515625 
L 43.21875 34.515625 
L 43.21875 35.40625 
Q 43.21875 41.609375 39.140625 45 
Q 35.0625 48.390625 27.6875 48.390625 
Q 23 48.390625 18.546875 47.265625 
Q 14.109375 46.140625 10.015625 43.890625 
L 10.015625 52.203125 
Q 14.9375 54.109375 19.578125 55.046875 
Q 24.21875 56 28.609375 56 
Q 40.484375 56 46.34375 49.84375 
Q 52.203125 43.703125 52.203125 31.203125 
" id="BitstreamVeraSans-Roman-61"/>
     </defs>
     <g transform="translate(401.44359375 301.227017045)scale(0.14 -0.14)">
      <use xlink:href="#BitstreamVeraSans-Roman-47"/>
      <use x="77.490234375" xlink:href="#BitstreamVeraSans-Roman-65"/>
      <use x="139.013671875" xlink:href="#BitstreamVeraSans-Roman-6e"/>
      <use x="202.392578125" xlink:href="#BitstreamVeraSans-Roman-65"/>
      <use x="263.916015625" xlink:href="#BitstreamVeraSans-Roman-72"/>
      <use x="305.029296875" xlink:href="#BitstreamVeraSans-Roman-61"/>
      <use x="366.30859375" xlink:href="#BitstreamVeraSans-Roman-74"/>
      <use x="405.517578125" xlink:href="#BitstreamVeraSans-Roman-69"/>
      <use x="433.30078125" xlink:href="#BitstreamVeraSans-Roman-6f"/>
      <use x="494.482421875" xlink:href="#BitstreamVeraSans-Roman-6e"/>
     </g>
    </g>
   </g>
   <g id="matplotlib.axis_2">
    <g id="ytick_1">
     <g id="line2d_16">
      <defs>
       <path d="M 0 0 
L 4 0 
" id="m0d079b9fbc" style="stroke:#000000;stroke-width:0.5;"/>
      </defs>
      <g>
       <use style="stroke:#000000;stroke-width:0.5;" x="107.4375" xlink:href="#m0d079b9fbc" y="269.975454545"/>
      </g>
     </g>
     <g id="line2d_17">
      <defs>
       <path d="M 0 0 
L -4 0 
" id="m3e57f97f71" style="stroke:#000000;stroke-width:0.5;"/>
      </defs>
      <g>
       <use style="stroke:#000000;stroke-width:0.5;" x="773.55" xlink:href="#m3e57f97f71" y="269.975454545"/>
      </g>
     </g>
     <g id="text_8">
      <!-- 0 -->
      <g transform="translate(95.8025 273.286704545)scale(0.12 -0.12)">
       <use xlink:href="#BitstreamVeraSans-Roman-30"/>
      </g>
     </g>
    </g>
    <g id="ytick_2">
     <g id="line2d_18">
      <g>
       <use style="stroke:#000000;stroke-width:0.5;" x="107.4375" xlink:href="#m0d079b9fbc" y="243.507272727"/>
      </g>
     </g>
     <g id="line2d_19">
      <g>
       <use style="stroke:#000000;stroke-width:0.5;" x="773.55" xlink:href="#m3e57f97f71" y="243.507272727"/>
      </g>
     </g>
     <g id="text_9">
      <!-- 10 -->
      <g transform="translate(88.1675 246.818522727)scale(0.12 -0.12)">
       <use xlink:href="#BitstreamVeraSans-Roman-31"/>
       <use x="63.623046875" xlink:href="#BitstreamVeraSans-Roman-30"/>
      </g>
     </g>
    </g>
    <g id="ytick_3">
     <g id="line2d_20">
      <g>
       <use style="stroke:#000000;stroke-width:0.5;" x="107.4375" xlink:href="#m0d079b9fbc" y="217.039090909"/>
      </g>
     </g>
     <g id="line2d_21">
      <g>
       <use style="stroke:#000000;stroke-width:0.5;" x="773.55" xlink:href="#m3e57f97f71" y="217.039090909"/>
      </g>
     </g>
     <g id="text_10">
      <!-- 20 -->
      <g transform="translate(88.1675 220.350340909)scale(0.12 -0.12)">
       <use xlink:href="#BitstreamVeraSans-Roman-32"/>
       <use x="63.623046875" xlink:href="#BitstreamVeraSans-Roman-30"/>
      </g>
     </g>
    </g>
    <g id="ytick_4">
     <g id="line2d_22">
      <g>
       <use style="stroke:#000000;stroke-width:0.5;" x="107.4375" xlink:href="#m0d079b9fbc" y="190.570909091"/>
      </g>
     </g>
     <g id="line2d_23">
      <g>
       <use style="stroke:#000000;stroke-width:0.5;" x="773.55" xlink:href="#m3e57f97f71" y="190.570909091"/>
      </g>
     </g>
     <g id="text_11">
      <!-- 30 -->
      <defs>
       <path d="M 40.578125 39.3125 
Q 47.65625 37.796875 51.625 33 
Q 55.609375 28.21875 55.609375 21.1875 
Q 55.609375 10.40625 48.1875 4.484375 
Q 40.765625 -1.421875 27.09375 -1.421875 
Q 22.515625 -1.421875 17.65625 -0.515625 
Q 12.796875 0.390625 7.625 2.203125 
L 7.625 11.71875 
Q 11.71875 9.328125 16.59375 8.109375 
Q 21.484375 6.890625 26.8125 6.890625 
Q 36.078125 6.890625 40.9375 10.546875 
Q 45.796875 14.203125 45.796875 21.1875 
Q 45.796875 27.640625 41.28125 31.265625 
Q 36.765625 34.90625 28.71875 34.90625 
L 20.21875 34.90625 
L 20.21875 43.015625 
L 29.109375 43.015625 
Q 36.375 43.015625 40.234375 45.921875 
Q 44.09375 48.828125 44.09375 54.296875 
Q 44.09375 59.90625 40.109375 62.90625 
Q 36.140625 65.921875 28.71875 65.921875 
Q 24.65625 65.921875 20.015625 65.03125 
Q 15.375 64.15625 9.8125 62.3125 
L 9.8125 71.09375 
Q 15.4375 72.65625 20.34375 73.4375 
Q 25.25 74.21875 29.59375 74.21875 
Q 40.828125 74.21875 47.359375 69.109375 
Q 53.90625 64.015625 53.90625 55.328125 
Q 53.90625 49.265625 50.4375 45.09375 
Q 46.96875 40.921875 40.578125 39.3125 
" id="BitstreamVeraSans-Roman-33"/>
      </defs>
      <g transform="translate(88.1675 193.882159091)scale(0.12 -0.12)">
       <use xlink:href="#BitstreamVeraSans-Roman-33"/>
       <use x="63.623046875" xlink:href="#BitstreamVeraSans-Roman-30"/>
      </g>
     </g>
    </g>
    <g id="ytick_5">
     <g id="line2d_24">
      <g>
       <use style="stroke:#000000;stroke-width:0.5;" x="107.4375" xlink:href="#m0d079b9fbc" y="164.102727273"/>
      </g>
     </g>
     <g id="line2d_25">
      <g>
       <use style="stroke:#000000;stroke-width:0.5;" x="773.55" xlink:href="#m3e57f97f71" y="164.102727273"/>
      </g>
     </g>
     <g id="text_12">
      <!-- 40 -->
      <g transform="translate(88.1675 167.413977273)scale(0.12 -0.12)">
       <use xlink:href="#BitstreamVeraSans-Roman-34"/>
       <use x="63.623046875" xlink:href="#BitstreamVeraSans-Roman-30"/>
      </g>
     </g>
    </g>
    <g id="ytick_6">
     <g id="line2d_26">
      <g>
       <use style="stroke:#000000;stroke-width:0.5;" x="107.4375" xlink:href="#m0d079b9fbc" y="137.634545455"/>
      </g>
     </g>
     <g id="line2d_27">
      <g>
       <use style="stroke:#000000;stroke-width:0.5;" x="773.55" xlink:href="#m3e57f97f71" y="137.634545455"/>
      </g>
     </g>
     <g id="text_13">
      <!-- 50 -->
      <defs>
       <path d="M 10.796875 72.90625 
L 49.515625 72.90625 
L 49.515625 64.59375 
L 19.828125 64.59375 
L 19.828125 46.734375 
Q 21.96875 47.46875 24.109375 47.828125 
Q 26.265625 48.1875 28.421875 48.1875 
Q 40.625 48.1875 47.75 41.5 
Q 54.890625 34.8125 54.890625 23.390625 
Q 54.890625 11.625 47.5625 5.09375 
Q 40.234375 -1.421875 26.90625 -1.421875 
Q 22.3125 -1.421875 17.546875 -0.640625 
Q 12.796875 0.140625 7.71875 1.703125 
L 7.71875 11.625 
Q 12.109375 9.234375 16.796875 8.0625 
Q 21.484375 6.890625 26.703125 6.890625 
Q 35.15625 6.890625 40.078125 11.328125 
Q 45.015625 15.765625 45.015625 23.390625 
Q 45.015625 31 40.078125 35.4375 
Q 35.15625 39.890625 26.703125 39.890625 
Q 22.75 39.890625 18.8125 39.015625 
Q 14.890625 38.140625 10.796875 36.28125 
z
" id="BitstreamVeraSans-Roman-35"/>
      </defs>
      <g transform="translate(88.1675 140.945795455)scale(0.12 -0.12)">
       <use xlink:href="#BitstreamVeraSans-Roman-35"/>
       <use x="63.623046875" xlink:href="#BitstreamVeraSans-Roman-30"/>
      </g>
     </g>
    </g>
    <g id="ytick_7">
     <g id="line2d_28">
      <g>
       <use style="stroke:#000000;stroke-width:0.5;" x="107.4375" xlink:href="#m0d079b9fbc" y="111.166363636"/>
      </g>
     </g>
     <g id="line2d_29">
      <g>
       <use style="stroke:#000000;stroke-width:0.5;" x="773.55" xlink:href="#m3e57f97f71" y="111.166363636"/>
      </g>
     </g>
     <g id="text_14">
      <!-- 60 -->
      <g transform="translate(88.1675 114.477613636)scale(0.12 -0.12)">
       <use xlink:href="#BitstreamVeraSans-Roman-36"/>
       <use x="63.623046875" xlink:href="#BitstreamVeraSans-Roman-30"/>
      </g>
     </g>
    </g>
    <g id="ytick_8">
     <g id="line2d_30">
      <g>
       <use style="stroke:#000000;stroke-width:0.5;" x="107.4375" xlink:href="#m0d079b9fbc" y="84.6981818182"/>
      </g>
     </g>
     <g id="line2d_31">
      <g>
       <use style="stroke:#000000;stroke-width:0.5;" x="773.55" xlink:href="#m3e57f97f71" y="84.6981818182"/>
      </g>
     </g>
     <g id="text_15">
      <!-- 70 -->
      <defs>
       <path d="M 8.203125 72.90625 
L 55.078125 72.90625 
L 55.078125 68.703125 
L 28.609375 0 
L 18.3125 0 
L 43.21875 64.59375 
L 8.203125 64.59375 
z
" id="BitstreamVeraSans-Roman-37"/>
      </defs>
      <g transform="translate(88.1675 88.0094318182)scale(0.12 -0.12)">
       <use xlink:href="#BitstreamVeraSans-Roman-37"/>
       <use x="63.623046875" xlink:href="#BitstreamVeraSans-Roman-30"/>
      </g>
     </g>
    </g>
    <g id="ytick_9">
     <g id="line2d_32">
      <g>
       <use style="stroke:#000000;stroke-width:0.5;" x="107.4375" xlink:href="#m0d079b9fbc" y="58.23"/>
      </g>
     </g>
     <g id="line2d_33">
      <g>
       <use style="stroke:#000000;stroke-width:0.5;" x="773.55" xlink:href="#m3e57f97f71" y="58.23"/>
      </g>
     </g>
     <g id="text_16">
      <!-- 80 -->
      <g transform="translate(88.1675 61.54125)scale(0.12 -0.12)">
       <use xlink:href="#BitstreamVeraSans-Roman-38"/>
       <use x="63.623046875" xlink:href="#BitstreamVeraSans-Roman-30"/>
      </g>
     </g>
    </g>
    <g id="text_17">
     <!-- Average Fitness -->
     <defs>
      <path id="BitstreamVeraSans-Roman-20"/>
      <path d="M 9.8125 72.90625 
L 51.703125 72.90625 
L 51.703125 64.59375 
L 19.671875 64.59375 
L 19.671875 43.109375 
L 48.578125 43.109375 
L 48.578125 34.8125 
L 19.671875 34.8125 
L 19.671875 0 
L 9.8125 0 
z
" id="BitstreamVeraSans-Roman-46"/>
      <path d="M 34.1875 63.1875 
L 20.796875 26.90625 
L 47.609375 26.90625 
z
M 28.609375 72.90625 
L 39.796875 72.90625 
L 67.578125 0 
L 57.328125 0 
L 50.6875 18.703125 
L 17.828125 18.703125 
L 11.1875 0 
L 0.78125 0 
z
" id="BitstreamVeraSans-Roman-41"/>
      <path d="M 2.984375 54.6875 
L 12.5 54.6875 
L 29.59375 8.796875 
L 46.6875 54.6875 
L 56.203125 54.6875 
L 35.6875 0 
L 23.484375 0 
z
" id="BitstreamVeraSans-Roman-76"/>
      <path d="M 45.40625 27.984375 
Q 45.40625 37.75 41.375 43.109375 
Q 37.359375 48.484375 30.078125 48.484375 
Q 22.859375 48.484375 18.828125 43.109375 
Q 14.796875 37.75 14.796875 27.984375 
Q 14.796875 18.265625 18.828125 12.890625 
Q 22.859375 7.515625 30.078125 7.515625 
Q 37.359375 7.515625 41.375 12.890625 
Q 45.40625 18.265625 45.40625 27.984375 
M 54.390625 6.78125 
Q 54.390625 -7.171875 48.1875 -13.984375 
Q 42 -20.796875 29.203125 -20.796875 
Q 24.46875 -20.796875 20.265625 -20.09375 
Q 16.0625 -19.390625 12.109375 -17.921875 
L 12.109375 -9.1875 
Q 16.0625 -11.328125 19.921875 -12.34375 
Q 23.78125 -13.375 27.78125 -13.375 
Q 36.625 -13.375 41.015625 -8.765625 
Q 45.40625 -4.15625 45.40625 5.171875 
L 45.40625 9.625 
Q 42.625 4.78125 38.28125 2.390625 
Q 33.9375 0 27.875 0 
Q 17.828125 0 11.671875 7.65625 
Q 5.515625 15.328125 5.515625 27.984375 
Q 5.515625 40.671875 11.671875 48.328125 
Q 17.828125 56 27.875 56 
Q 33.9375 56 38.28125 53.609375 
Q 42.625 51.21875 45.40625 46.390625 
L 45.40625 54.6875 
L 54.390625 54.6875 
z
" id="BitstreamVeraSans-Roman-67"/>
      <path d="M 44.28125 53.078125 
L 44.28125 44.578125 
Q 40.484375 46.53125 36.375 47.5 
Q 32.28125 48.484375 27.875 48.484375 
Q 21.1875 48.484375 17.84375 46.4375 
Q 14.5 44.390625 14.5 40.28125 
Q 14.5 37.15625 16.890625 35.375 
Q 19.28125 33.59375 26.515625 31.984375 
L 29.59375 31.296875 
Q 39.15625 29.25 43.1875 25.515625 
Q 47.21875 21.78125 47.21875 15.09375 
Q 47.21875 7.46875 41.1875 3.015625 
Q 35.15625 -1.421875 24.609375 -1.421875 
Q 20.21875 -1.421875 15.453125 -0.5625 
Q 10.6875 0.296875 5.421875 2 
L 5.421875 11.28125 
Q 10.40625 8.6875 15.234375 7.390625 
Q 20.0625 6.109375 24.8125 6.109375 
Q 31.15625 6.109375 34.5625 8.28125 
Q 37.984375 10.453125 37.984375 14.40625 
Q 37.984375 18.0625 35.515625 20.015625 
Q 33.0625 21.96875 24.703125 23.78125 
L 21.578125 24.515625 
Q 13.234375 26.265625 9.515625 29.90625 
Q 5.8125 33.546875 5.8125 39.890625 
Q 5.8125 47.609375 11.28125 51.796875 
Q 16.75 56 26.8125 56 
Q 31.78125 56 36.171875 55.265625 
Q 40.578125 54.546875 44.28125 53.078125 
" id="BitstreamVeraSans-Roman-73"/>
     </defs>
     <g transform="translate(80.2559375 220.223039773)rotate(-90.0)scale(0.14 -0.14)">
      <use xlink:href="#BitstreamVeraSans-Roman-41"/>
      <use x="68.330078125" xlink:href="#BitstreamVeraSans-Roman-76"/>
      <use x="127.509765625" xlink:href="#BitstreamVeraSans-Roman-65"/>
      <use x="189.033203125" xlink:href="#BitstreamVeraSans-Roman-72"/>
      <use x="230.146484375" xlink:href="#BitstreamVeraSans-Roman-61"/>
      <use x="291.42578125" xlink:href="#BitstreamVeraSans-Roman-67"/>
      <use x="354.90234375" xlink:href="#BitstreamVeraSans-Roman-65"/>
      <use x="416.42578125" xlink:href="#BitstreamVeraSans-Roman-20"/>
      <use x="448.212890625" xlink:href="#BitstreamVeraSans-Roman-46"/>
      <use x="505.623046875" xlink:href="#BitstreamVeraSans-Roman-69"/>
      <use x="533.40625" xlink:href="#BitstreamVeraSans-Roman-74"/>
      <use x="572.615234375" xlink:href="#BitstreamVeraSans-Roman-6e"/>
      <use x="635.994140625" xlink:href="#BitstreamVeraSans-Roman-65"/>
      <use x="697.517578125" xlink:href="#BitstreamVeraSans-Roman-73"/>
      <use x="749.6171875" xlink:href="#BitstreamVeraSans-Roman-73"/>
     </g>
    </g>
   </g>
   <g id="text_18">
    <!-- Convergence of Crossover Methods -->
    <defs>
     <path d="M 9.8125 72.90625 
L 24.515625 72.90625 
L 43.109375 23.296875 
L 61.8125 72.90625 
L 76.515625 72.90625 
L 76.515625 0 
L 66.890625 0 
L 66.890625 64.015625 
L 48.09375 14.015625 
L 38.1875 14.015625 
L 19.390625 64.015625 
L 19.390625 0 
L 9.8125 0 
z
" id="BitstreamVeraSans-Roman-4d"/>
     <path d="M 64.40625 67.28125 
L 64.40625 56.890625 
Q 59.421875 61.53125 53.78125 63.8125 
Q 48.140625 66.109375 41.796875 66.109375 
Q 29.296875 66.109375 22.65625 58.46875 
Q 16.015625 50.828125 16.015625 36.375 
Q 16.015625 21.96875 22.65625 14.328125 
Q 29.296875 6.6875 41.796875 6.6875 
Q 48.140625 6.6875 53.78125 8.984375 
Q 59.421875 11.28125 64.40625 15.921875 
L 64.40625 5.609375 
Q 59.234375 2.09375 53.4375 0.328125 
Q 47.65625 -1.421875 41.21875 -1.421875 
Q 24.65625 -1.421875 15.125 8.703125 
Q 5.609375 18.84375 5.609375 36.375 
Q 5.609375 53.953125 15.125 64.078125 
Q 24.65625 74.21875 41.21875 74.21875 
Q 47.75 74.21875 53.53125 72.484375 
Q 59.328125 70.75 64.40625 67.28125 
" id="BitstreamVeraSans-Roman-43"/>
     <path d="M 54.890625 33.015625 
L 54.890625 0 
L 45.90625 0 
L 45.90625 32.71875 
Q 45.90625 40.484375 42.875 44.328125 
Q 39.84375 48.1875 33.796875 48.1875 
Q 26.515625 48.1875 22.3125 43.546875 
Q 18.109375 38.921875 18.109375 30.90625 
L 18.109375 0 
L 9.078125 0 
L 9.078125 75.984375 
L 18.109375 75.984375 
L 18.109375 46.1875 
Q 21.34375 51.125 25.703125 53.5625 
Q 30.078125 56 35.796875 56 
Q 45.21875 56 50.046875 50.171875 
Q 54.890625 44.34375 54.890625 33.015625 
" id="BitstreamVeraSans-Roman-68"/>
     <path d="M 45.40625 46.390625 
L 45.40625 75.984375 
L 54.390625 75.984375 
L 54.390625 0 
L 45.40625 0 
L 45.40625 8.203125 
Q 42.578125 3.328125 38.25 0.953125 
Q 33.9375 -1.421875 27.875 -1.421875 
Q 17.96875 -1.421875 11.734375 6.484375 
Q 5.515625 14.40625 5.515625 27.296875 
Q 5.515625 40.1875 11.734375 48.09375 
Q 17.96875 56 27.875 56 
Q 33.9375 56 38.25 53.625 
Q 42.578125 51.265625 45.40625 46.390625 
M 14.796875 27.296875 
Q 14.796875 17.390625 18.875 11.75 
Q 22.953125 6.109375 30.078125 6.109375 
Q 37.203125 6.109375 41.296875 11.75 
Q 45.40625 17.390625 45.40625 27.296875 
Q 45.40625 37.203125 41.296875 42.84375 
Q 37.203125 48.484375 30.078125 48.484375 
Q 22.953125 48.484375 18.875 42.84375 
Q 14.796875 37.203125 14.796875 27.296875 
" id="BitstreamVeraSans-Roman-64"/>
     <path d="M 37.109375 75.984375 
L 37.109375 68.5 
L 28.515625 68.5 
Q 23.6875 68.5 21.796875 66.546875 
Q 19.921875 64.59375 19.921875 59.515625 
L 19.921875 54.6875 
L 34.71875 54.6875 
L 34.71875 47.703125 
L 19.921875 47.703125 
L 19.921875 0 
L 10.890625 0 
L 10.890625 47.703125 
L 2.296875 47.703125 
L 2.296875 54.6875 
L 10.890625 54.6875 
L 10.890625 58.5 
Q 10.890625 67.625 15.140625 71.796875 
Q 19.390625 75.984375 28.609375 75.984375 
z
" id="BitstreamVeraSans-Roman-66"/>
     <path d="M 48.78125 52.59375 
L 48.78125 44.1875 
Q 44.96875 46.296875 41.140625 47.34375 
Q 37.3125 48.390625 33.40625 48.390625 
Q 24.65625 48.390625 19.8125 42.84375 
Q 14.984375 37.3125 14.984375 27.296875 
Q 14.984375 17.28125 19.8125 11.734375 
Q 24.65625 6.203125 33.40625 6.203125 
Q 37.3125 6.203125 41.140625 7.25 
Q 44.96875 8.296875 48.78125 10.40625 
L 48.78125 2.09375 
Q 45.015625 0.34375 40.984375 -0.53125 
Q 36.96875 -1.421875 32.421875 -1.421875 
Q 20.0625 -1.421875 12.78125 6.34375 
Q 5.515625 14.109375 5.515625 27.296875 
Q 5.515625 40.671875 12.859375 48.328125 
Q 20.21875 56 33.015625 56 
Q 37.15625 56 41.109375 55.140625 
Q 45.0625 54.296875 48.78125 52.59375 
" id="BitstreamVeraSans-Roman-63"/>
    </defs>
    <g transform="translate(312.384375 53.23)scale(0.144 -0.144)">
     <use xlink:href="#BitstreamVeraSans-Roman-43"/>
     <use x="69.82421875" xlink:href="#BitstreamVeraSans-Roman-6f"/>
     <use x="131.005859375" xlink:href="#BitstreamVeraSans-Roman-6e"/>
     <use x="194.384765625" xlink:href="#BitstreamVeraSans-Roman-76"/>
     <use x="253.564453125" xlink:href="#BitstreamVeraSans-Roman-65"/>
     <use x="315.087890625" xlink:href="#BitstreamVeraSans-Roman-72"/>
     <use x="356.185546875" xlink:href="#BitstreamVeraSans-Roman-67"/>
     <use x="419.662109375" xlink:href="#BitstreamVeraSans-Roman-65"/>
     <use x="481.185546875" xlink:href="#BitstreamVeraSans-Roman-6e"/>
     <use x="544.564453125" xlink:href="#BitstreamVeraSans-Roman-63"/>
     <use x="599.544921875" xlink:href="#BitstreamVeraSans-Roman-65"/>
     <use x="661.068359375" xlink:href="#BitstreamVeraSans-Roman-20"/>
     <use x="692.85546875" xlink:href="#BitstreamVeraSans-Roman-6f"/>
     <use x="754.037109375" xlink:href="#BitstreamVeraSans-Roman-66"/>
     <use x="789.2421875" xlink:href="#BitstreamVeraSans-Roman-20"/>
     <use x="821.029296875" xlink:href="#BitstreamVeraSans-Roman-43"/>
     <use x="890.853515625" xlink:href="#BitstreamVeraSans-Roman-72"/>
     <use x="931.935546875" xlink:href="#BitstreamVeraSans-Roman-6f"/>
     <use x="993.1171875" xlink:href="#BitstreamVeraSans-Roman-73"/>
     <use x="1045.21679688" xlink:href="#BitstreamVeraSans-Roman-73"/>
     <use x="1097.31640625" xlink:href="#BitstreamVeraSans-Roman-6f"/>
     <use x="1158.49804688" xlink:href="#BitstreamVeraSans-Roman-76"/>
     <use x="1217.67773438" xlink:href="#BitstreamVeraSans-Roman-65"/>
     <use x="1279.20117188" xlink:href="#BitstreamVeraSans-Roman-72"/>
     <use x="1320.31445312" xlink:href="#BitstreamVeraSans-Roman-20"/>
     <use x="1352.1015625" xlink:href="#BitstreamVeraSans-Roman-4d"/>
     <use x="1438.38085938" xlink:href="#BitstreamVeraSans-Roman-65"/>
     <use x="1499.90429688" xlink:href="#BitstreamVeraSans-Roman-74"/>
     <use x="1539.11328125" xlink:href="#BitstreamVeraSans-Roman-68"/>
     <use x="1602.4921875" xlink:href="#BitstreamVeraSans-Roman-6f"/>
     <use x="1663.67382812" xlink:href="#BitstreamVeraSans-Roman-64"/>
     <use x="1727.15039062" xlink:href="#BitstreamVeraSans-Roman-73"/>
    </g>
   </g>
   <g id="legend_1">
    <g id="patch_7">
     <path d="M 567.8775 133.1595 
L 766.35 133.1595 
L 766.35 65.43 
L 567.8775 65.43 
z
" style="fill:#ffffff;stroke:#000000;stroke-linejoin:miter;"/>
    </g>
    <g id="line2d_34">
     <path d="M 577.9575 77.09175 
L 598.1175 77.09175 
" style="fill:none;stroke:#0000ff;stroke-linecap:square;"/>
    </g>
    <g id="line2d_35"/>
    <g id="text_19">
     <!-- No Crossover -->
     <defs>
      <path d="M 9.8125 72.90625 
L 23.09375 72.90625 
L 55.421875 11.921875 
L 55.421875 72.90625 
L 64.984375 72.90625 
L 64.984375 0 
L 51.703125 0 
L 19.390625 60.984375 
L 19.390625 0 
L 9.8125 0 
z
" id="BitstreamVeraSans-Roman-4e"/>
     </defs>
     <g transform="translate(613.9575 82.13175)scale(0.144 -0.144)">
      <use xlink:href="#BitstreamVeraSans-Roman-4e"/>
      <use x="74.8046875" xlink:href="#BitstreamVeraSans-Roman-6f"/>
      <use x="135.986328125" xlink:href="#BitstreamVeraSans-Roman-20"/>
      <use x="167.7734375" xlink:href="#BitstreamVeraSans-Roman-43"/>
      <use x="237.59765625" xlink:href="#BitstreamVeraSans-Roman-72"/>
      <use x="278.6796875" xlink:href="#BitstreamVeraSans-Roman-6f"/>
      <use x="339.861328125" xlink:href="#BitstreamVeraSans-Roman-73"/>
      <use x="391.9609375" xlink:href="#BitstreamVeraSans-Roman-73"/>
      <use x="444.060546875" xlink:href="#BitstreamVeraSans-Roman-6f"/>
      <use x="505.2421875" xlink:href="#BitstreamVeraSans-Roman-76"/>
      <use x="564.421875" xlink:href="#BitstreamVeraSans-Roman-65"/>
      <use x="625.9453125" xlink:href="#BitstreamVeraSans-Roman-72"/>
     </g>
    </g>
    <g id="line2d_36">
     <path d="M 577.9575 98.22825 
L 598.1175 98.22825 
" style="fill:none;stroke:#008000;stroke-linecap:square;"/>
    </g>
    <g id="line2d_37"/>
    <g id="text_20">
     <!-- One Point Crossover -->
     <defs>
      <path d="M 19.671875 64.796875 
L 19.671875 37.40625 
L 32.078125 37.40625 
Q 38.96875 37.40625 42.71875 40.96875 
Q 46.484375 44.53125 46.484375 51.125 
Q 46.484375 57.671875 42.71875 61.234375 
Q 38.96875 64.796875 32.078125 64.796875 
z
M 9.8125 72.90625 
L 32.078125 72.90625 
Q 44.34375 72.90625 50.609375 67.359375 
Q 56.890625 61.8125 56.890625 51.125 
Q 56.890625 40.328125 50.609375 34.8125 
Q 44.34375 29.296875 32.078125 29.296875 
L 19.671875 29.296875 
L 19.671875 0 
L 9.8125 0 
z
" id="BitstreamVeraSans-Roman-50"/>
      <path d="M 39.40625 66.21875 
Q 28.65625 66.21875 22.328125 58.203125 
Q 16.015625 50.203125 16.015625 36.375 
Q 16.015625 22.609375 22.328125 14.59375 
Q 28.65625 6.59375 39.40625 6.59375 
Q 50.140625 6.59375 56.421875 14.59375 
Q 62.703125 22.609375 62.703125 36.375 
Q 62.703125 50.203125 56.421875 58.203125 
Q 50.140625 66.21875 39.40625 66.21875 
M 39.40625 74.21875 
Q 54.734375 74.21875 63.90625 63.9375 
Q 73.09375 53.65625 73.09375 36.375 
Q 73.09375 19.140625 63.90625 8.859375 
Q 54.734375 -1.421875 39.40625 -1.421875 
Q 24.03125 -1.421875 14.8125 8.828125 
Q 5.609375 19.09375 5.609375 36.375 
Q 5.609375 53.65625 14.8125 63.9375 
Q 24.03125 74.21875 39.40625 74.21875 
" id="BitstreamVeraSans-Roman-4f"/>
     </defs>
     <g transform="translate(613.9575 103.26825)scale(0.144 -0.144)">
      <use xlink:href="#BitstreamVeraSans-Roman-4f"/>
      <use x="78.7109375" xlink:href="#BitstreamVeraSans-Roman-6e"/>
      <use x="142.08984375" xlink:href="#BitstreamVeraSans-Roman-65"/>
      <use x="203.61328125" xlink:href="#BitstreamVeraSans-Roman-20"/>
      <use x="235.400390625" xlink:href="#BitstreamVeraSans-Roman-50"/>
      <use x="295.65625" xlink:href="#BitstreamVeraSans-Roman-6f"/>
      <use x="356.837890625" xlink:href="#BitstreamVeraSans-Roman-69"/>
      <use x="384.62109375" xlink:href="#BitstreamVeraSans-Roman-6e"/>
      <use x="448.0" xlink:href="#BitstreamVeraSans-Roman-74"/>
      <use x="487.208984375" xlink:href="#BitstreamVeraSans-Roman-20"/>
      <use x="518.99609375" xlink:href="#BitstreamVeraSans-Roman-43"/>
      <use x="588.8203125" xlink:href="#BitstreamVeraSans-Roman-72"/>
      <use x="629.90234375" xlink:href="#BitstreamVeraSans-Roman-6f"/>
      <use x="691.083984375" xlink:href="#BitstreamVeraSans-Roman-73"/>
      <use x="743.18359375" xlink:href="#BitstreamVeraSans-Roman-73"/>
      <use x="795.283203125" xlink:href="#BitstreamVeraSans-Roman-6f"/>
      <use x="856.46484375" xlink:href="#BitstreamVeraSans-Roman-76"/>
      <use x="915.64453125" xlink:href="#BitstreamVeraSans-Roman-65"/>
      <use x="977.16796875" xlink:href="#BitstreamVeraSans-Roman-72"/>
     </g>
    </g>
    <g id="line2d_38">
     <path d="M 577.9575 119.36475 
L 598.1175 119.36475 
" style="fill:none;stroke:#ff0000;stroke-linecap:square;"/>
    </g>
    <g id="line2d_39"/>
    <g id="text_21">
     <!-- Uniform Crossover -->
     <defs>
      <path d="M 52 44.1875 
Q 55.375 50.25 60.0625 53.125 
Q 64.75 56 71.09375 56 
Q 79.640625 56 84.28125 50.015625 
Q 88.921875 44.046875 88.921875 33.015625 
L 88.921875 0 
L 79.890625 0 
L 79.890625 32.71875 
Q 79.890625 40.578125 77.09375 44.375 
Q 74.3125 48.1875 68.609375 48.1875 
Q 61.625 48.1875 57.5625 43.546875 
Q 53.515625 38.921875 53.515625 30.90625 
L 53.515625 0 
L 44.484375 0 
L 44.484375 32.71875 
Q 44.484375 40.625 41.703125 44.40625 
Q 38.921875 48.1875 33.109375 48.1875 
Q 26.21875 48.1875 22.15625 43.53125 
Q 18.109375 38.875 18.109375 30.90625 
L 18.109375 0 
L 9.078125 0 
L 9.078125 54.6875 
L 18.109375 54.6875 
L 18.109375 46.1875 
Q 21.1875 51.21875 25.484375 53.609375 
Q 29.78125 56 35.6875 56 
Q 41.65625 56 45.828125 52.96875 
Q 50 49.953125 52 44.1875 
" id="BitstreamVeraSans-Roman-6d"/>
      <path d="M 8.6875 72.90625 
L 18.609375 72.90625 
L 18.609375 28.609375 
Q 18.609375 16.890625 22.84375 11.734375 
Q 27.09375 6.59375 36.625 6.59375 
Q 46.09375 6.59375 50.34375 11.734375 
Q 54.59375 16.890625 54.59375 28.609375 
L 54.59375 72.90625 
L 64.5 72.90625 
L 64.5 27.390625 
Q 64.5 13.140625 57.4375 5.859375 
Q 50.390625 -1.421875 36.625 -1.421875 
Q 22.796875 -1.421875 15.734375 5.859375 
Q 8.6875 13.140625 8.6875 27.390625 
z
" id="BitstreamVeraSans-Roman-55"/>
     </defs>
     <g transform="translate(613.9575 124.40475)scale(0.144 -0.144)">
      <use xlink:href="#BitstreamVeraSans-Roman-55"/>
      <use x="73.193359375" xlink:href="#BitstreamVeraSans-Roman-6e"/>
      <use x="136.572265625" xlink:href="#BitstreamVeraSans-Roman-69"/>
      <use x="164.35546875" xlink:href="#BitstreamVeraSans-Roman-66"/>
      <use x="199.560546875" xlink:href="#BitstreamVeraSans-Roman-6f"/>
      <use x="260.7421875" xlink:href="#BitstreamVeraSans-Roman-72"/>
      <use x="301.83984375" xlink:href="#BitstreamVeraSans-Roman-6d"/>
      <use x="399.251953125" xlink:href="#BitstreamVeraSans-Roman-20"/>
      <use x="431.0390625" xlink:href="#BitstreamVeraSans-Roman-43"/>
      <use x="500.86328125" xlink:href="#BitstreamVeraSans-Roman-72"/>
      <use x="541.9453125" xlink:href="#BitstreamVeraSans-Roman-6f"/>
      <use x="603.126953125" xlink:href="#BitstreamVeraSans-Roman-73"/>
      <use x="655.2265625" xlink:href="#BitstreamVeraSans-Roman-73"/>
      <use x="707.326171875" xlink:href="#BitstreamVeraSans-Roman-6f"/>
      <use x="768.5078125" xlink:href="#BitstreamVeraSans-Roman-76"/>
      <use x="827.6875" xlink:href="#BitstreamVeraSans-Roman-65"/>
      <use x="889.2109375" xlink:href="#BitstreamVeraSans-Roman-72"/>
     </g>
    </g>
   </g>
  </g>
  <g id="axes_2">
   <g id="patch_8">
    <path d="M 107.4375 524.07 
L 773.55 524.07 
L 773.55 312.324545 
L 107.4375 312.324545 
z
" style="fill:#ffffff;"/>
   </g>
   <g id="line2d_40">
    <path clip-path="url(#p030c9bf148)" d="M 114.098625 524.07 
L 120.75975 524.07 
L 127.420875 524.07 
L 134.082 524.07 
L 140.743125 524.07 
L 147.40425 523.822964 
L 154.065375 523.255246 
L 160.7265 522.142199 
L 167.387625 518.423013 
L 174.04875 514.252211 
L 180.709875 507.702854 
L 187.371 500.530937 
L 194.032125 494.785243 
L 200.69325 492.526955 
L 207.354375 492.02088 
L 214.0155 490.393799 
L 220.676625 483.195981 
L 227.33775 477.579548 
L 233.998875 474.082311 
L 240.66 457.225767 
L 247.321125 447.492061 
L 253.98225 438.866884 
L 260.643375 420.319037 
L 267.3045 408.178813 
L 273.965625 412.066806 
L 280.62675 411.480727 
L 287.287875 379.740222 
L 293.949 374.232077 
L 300.610125 370.525516 
L 307.27125 374.503742 
L 313.932375 385.044596 
L 320.5935 370.999059 
L 327.254625 382.983089 
L 333.91575 391.934728 
L 340.576875 388.43947 
L 347.238 371.643563 
L 353.899125 372.302903 
L 360.56025 382.283222 
L 367.221375 361.719413 
L 373.8825 361.811526 
L 380.543625 374.990966 
L 387.20475 374.690014 
L 393.865875 366.313174 
L 400.527 365.0473 
L 407.188125 358.789971 
L 413.84925 368.903177 
L 420.510375 387.101467 
L 427.1715 377.990764 
L 433.832625 373.632674 
L 440.49375 361.168628 
L 447.154875 358.266586 
L 453.816 358.396606 
L 460.477125 347.574758 
L 467.13825 357.705821 
L 473.799375 368.235239 
L 480.4605 365.695897 
L 487.121625 364.121571 
L 493.78275 348.660265 
L 500.443875 339.026558 
L 507.105 348.620419 
L 513.766125 366.108407 
L 520.42725 354.547746 
L 527.088375 352.474807 
L 533.7495 357.006679 
L 540.410625 342.771161 
L 547.07175 353.588984 
L 553.732875 367.999108 
L 560.394 366.913242 
L 567.055125 363.409556 
L 573.71625 359.826242 
L 580.377375 365.584331 
L 587.0385 359.647034 
L 593.699625 347.438404 
L 600.36075 355.959837 
L 607.021875 362.209462 
L 613.683 357.160426 
L 620.344125 356.720461 
L 627.00525 351.801303 
L 633.666375 353.220844 
L 640.3275 350.015948 
L 646.988625 334.661666 
L 653.64975 343.903356 
L 660.310875 343.315459 
L 666.972 340.924333 
L 673.633125 360.498034 
L 680.29425 358.33706 
L 686.955375 343.465605 
L 693.6165 339.082645 
L 700.277625 340.327317 
L 706.93875 353.723414 
L 713.599875 351.977566 
L 720.261 346.298702 
L 726.922125 360.467793 
L 733.58325 367.030034 
L 740.244375 351.777884 
L 746.9055 349.215882 
L 753.566625 349.61566 
L 760.22775 340.142056 
L 766.888875 342.601194 
L 773.55 338.867129 
" style="fill:none;stroke:#0000ff;stroke-linecap:square;"/>
   </g>
   <g id="line2d_41">
    <path clip-path="url(#p030c9bf148)" d="M 114.098625 524.07 
L 120.75975 524.07 
L 127.420875 524.07 
L 134.082 524.07 
L 140.743125 524.07 
L 147.40425 524.07 
L 154.065375 524.07 
L 160.7265 524.07 
L 167.387625 524.07 
L 174.04875 524.07 
L 180.709875 524.07 
L 187.371 524.07 
L 194.032125 524.07 
L 200.69325 524.07 
L 207.354375 524.07 
L 214.0155 524.07 
L 220.676625 524.07 
L 227.33775 524.07 
L 233.998875 524.07 
L 240.66 524.07 
L 247.321125 524.07 
L 253.98225 524.07 
L 260.643375 524.034709 
L 267.3045 524.020091 
L 273.965625 522.305102 
L 280.62675 467.788623 
L 287.287875 447.857282 
L 293.949 445.403579 
L 300.610125 425.24793 
L 307.27125 406.512994 
L 313.932375 411.08248 
L 320.5935 425.35471 
L 327.254625 402.151452 
L 333.91575 382.61414 
L 340.576875 400.060753 
L 347.238 408.542062 
L 353.899125 383.443587 
L 360.56025 386.661316 
L 367.221375 401.713105 
L 373.8825 383.875159 
L 380.543625 386.678792 
L 387.20475 402.067163 
L 393.865875 394.570135 
L 400.527 376.32295 
L 407.188125 378.847 
L 413.84925 377.618587 
L 420.510375 373.898784 
L 427.1715 391.502867 
L 433.832625 390.190328 
L 440.49375 376.333752 
L 447.154875 363.916584 
L 453.816 373.567078 
L 460.477125 374.584753 
L 467.13825 365.113462 
L 473.799375 381.123154 
L 480.4605 392.410331 
L 487.121625 380.248569 
L 493.78275 378.336812 
L 500.443875 375.608645 
L 507.105 377.193234 
L 513.766125 388.322785 
L 520.42725 371.776867 
L 527.088375 360.640757 
L 533.7495 365.606351 
L 540.410625 364.939742 
L 547.07175 367.124518 
L 553.732875 368.861296 
L 560.394 373.797476 
L 567.055125 391.409257 
L 573.71625 378.385327 
L 580.377375 361.837629 
L 587.0385 359.612694 
L 593.699625 353.609064 
L 600.36075 353.412549 
L 607.021875 360.455545 
L 613.683 361.197515 
L 620.344125 370.60235 
L 627.00525 373.375372 
L 633.666375 354.756517 
L 640.3275 345.839505 
L 646.988625 346.555784 
L 653.64975 353.439812 
L 660.310875 355.200806 
L 666.972 350.755569 
L 673.633125 347.684321 
L 680.29425 347.337884 
L 686.955375 351.951688 
L 693.6165 362.616945 
L 700.277625 364.743661 
L 706.93875 360.564472 
L 713.599875 358.948599 
L 720.261 359.951286 
L 726.922125 364.757721 
L 733.58325 365.759025 
L 740.244375 364.958479 
L 746.9055 373.346035 
L 753.566625 360.310675 
L 760.22775 349.034729 
L 766.888875 354.208681 
L 773.55 357.938076 
" style="fill:none;stroke:#008000;stroke-linecap:square;"/>
   </g>
   <g id="line2d_42">
    <path clip-path="url(#p030c9bf148)" d="M 114.098625 524.07 
L 120.75975 524.07 
L 127.420875 524.07 
L 134.082 524.07 
L 140.743125 524.07 
L 147.40425 524.07 
L 154.065375 524.07 
L 160.7265 524.07 
L 167.387625 524.07 
L 174.04875 524.034709 
L 180.709875 523.924492 
L 187.371 523.556157 
L 194.032125 520.785859 
L 200.69325 517.73924 
L 207.354375 518.427316 
L 214.0155 519.770154 
L 220.676625 518.694996 
L 227.33775 518.45331 
L 233.998875 512.004328 
L 240.66 503.465367 
L 247.321125 483.768075 
L 253.98225 471.250461 
L 260.643375 456.478032 
L 267.3045 432.918446 
L 273.965625 424.20368 
L 280.62675 423.307872 
L 287.287875 426.720745 
L 293.949 431.643729 
L 300.610125 414.394229 
L 307.27125 397.889167 
L 313.932375 395.726667 
L 320.5935 394.236698 
L 327.254625 390.505989 
L 333.91575 390.481304 
L 340.576875 392.608147 
L 347.238 386.849937 
L 353.899125 371.776217 
L 360.56025 378.057712 
L 367.221375 392.749402 
L 373.8825 373.958086 
L 380.543625 354.072215 
L 387.20475 360.206895 
L 393.865875 384.205734 
L 400.527 377.963518 
L 407.188125 367.143823 
L 413.84925 388.033121 
L 420.510375 384.407281 
L 427.1715 375.084684 
L 433.832625 370.906133 
L 440.49375 352.577931 
L 447.154875 345.595774 
L 453.816 363.608197 
L 460.477125 368.414494 
L 467.13825 349.54565 
L 473.799375 363.573584 
L 480.4605 364.186271 
L 487.121625 352.090998 
L 493.78275 357.846892 
L 500.443875 365.098991 
L 507.105 359.062929 
L 513.766125 350.0347 
L 520.42725 352.62409 
L 527.088375 352.203675 
L 533.7495 356.499124 
L 540.410625 353.735752 
L 547.07175 346.385792 
L 553.732875 351.421516 
L 560.394 366.798611 
L 567.055125 367.846792 
L 573.71625 357.294782 
L 580.377375 351.362651 
L 587.0385 361.98411 
L 593.699625 365.73451 
L 600.36075 355.901708 
L 607.021875 355.275497 
L 613.683 361.429438 
L 620.344125 370.664234 
L 627.00525 376.314027 
L 633.666375 369.980321 
L 640.3275 354.480587 
L 646.988625 347.361877 
L 653.64975 345.52047 
L 660.310875 347.943128 
L 666.972 359.762675 
L 673.633125 357.221621 
L 680.29425 345.945171 
L 686.955375 353.952132 
L 693.6165 363.236766 
L 700.277625 362.028821 
L 706.93875 352.731739 
L 713.599875 345.920103 
L 720.261 357.158964 
L 726.922125 362.30891 
L 733.58325 348.618815 
L 740.244375 342.722599 
L 746.9055 349.373523 
L 753.566625 353.926748 
L 760.22775 358.951443 
L 766.888875 356.921808 
L 773.55 358.500079 
" style="fill:none;stroke:#ff0000;stroke-linecap:square;"/>
   </g>
   <g id="patch_9">
    <path d="M 107.4375 312.324545 
L 773.55 312.324545 
" style="fill:none;stroke:#000000;stroke-linecap:square;stroke-linejoin:miter;"/>
   </g>
   <g id="patch_10">
    <path d="M 773.55 524.07 
L 773.55 312.324545 
" style="fill:none;stroke:#000000;stroke-linecap:square;stroke-linejoin:miter;"/>
   </g>
   <g id="patch_11">
    <path d="M 107.4375 524.07 
L 773.55 524.07 
" style="fill:none;stroke:#000000;stroke-linecap:square;stroke-linejoin:miter;"/>
   </g>
   <g id="patch_12">
    <path d="M 107.4375 524.07 
L 107.4375 312.324545 
" style="fill:none;stroke:#000000;stroke-linecap:square;stroke-linejoin:miter;"/>
   </g>
   <g id="matplotlib.axis_3">
    <g id="xtick_7">
     <g id="line2d_43">
      <g>
       <use style="stroke:#000000;stroke-width:0.5;" x="107.4375" xlink:href="#m650a4d56d7" y="524.07"/>
      </g>
     </g>
     <g id="line2d_44">
      <g>
       <use style="stroke:#000000;stroke-width:0.5;" x="107.4375" xlink:href="#meb63d1b80a" y="312.324545455"/>
      </g>
     </g>
     <g id="text_22">
      <!-- 0 -->
      <g transform="translate(103.62 537.188125)scale(0.12 -0.12)">
       <use xlink:href="#BitstreamVeraSans-Roman-30"/>
      </g>
     </g>
    </g>
    <g id="xtick_8">
     <g id="line2d_45">
      <g>
       <use style="stroke:#000000;stroke-width:0.5;" x="240.66" xlink:href="#m650a4d56d7" y="524.07"/>
      </g>
     </g>
     <g id="line2d_46">
      <g>
       <use style="stroke:#000000;stroke-width:0.5;" x="240.66" xlink:href="#meb63d1b80a" y="312.324545455"/>
      </g>
     </g>
     <g id="text_23">
      <!-- 20 -->
      <g transform="translate(233.025 537.188125)scale(0.12 -0.12)">
       <use xlink:href="#BitstreamVeraSans-Roman-32"/>
       <use x="63.623046875" xlink:href="#BitstreamVeraSans-Roman-30"/>
      </g>
     </g>
    </g>
    <g id="xtick_9">
     <g id="line2d_47">
      <g>
       <use style="stroke:#000000;stroke-width:0.5;" x="373.8825" xlink:href="#m650a4d56d7" y="524.07"/>
      </g>
     </g>
     <g id="line2d_48">
      <g>
       <use style="stroke:#000000;stroke-width:0.5;" x="373.8825" xlink:href="#meb63d1b80a" y="312.324545455"/>
      </g>
     </g>
     <g id="text_24">
      <!-- 40 -->
      <g transform="translate(366.2475 537.188125)scale(0.12 -0.12)">
       <use xlink:href="#BitstreamVeraSans-Roman-34"/>
       <use x="63.623046875" xlink:href="#BitstreamVeraSans-Roman-30"/>
      </g>
     </g>
    </g>
    <g id="xtick_10">
     <g id="line2d_49">
      <g>
       <use style="stroke:#000000;stroke-width:0.5;" x="507.105" xlink:href="#m650a4d56d7" y="524.07"/>
      </g>
     </g>
     <g id="line2d_50">
      <g>
       <use style="stroke:#000000;stroke-width:0.5;" x="507.105" xlink:href="#meb63d1b80a" y="312.324545455"/>
      </g>
     </g>
     <g id="text_25">
      <!-- 60 -->
      <g transform="translate(499.47 537.188125)scale(0.12 -0.12)">
       <use xlink:href="#BitstreamVeraSans-Roman-36"/>
       <use x="63.623046875" xlink:href="#BitstreamVeraSans-Roman-30"/>
      </g>
     </g>
    </g>
    <g id="xtick_11">
     <g id="line2d_51">
      <g>
       <use style="stroke:#000000;stroke-width:0.5;" x="640.3275" xlink:href="#m650a4d56d7" y="524.07"/>
      </g>
     </g>
     <g id="line2d_52">
      <g>
       <use style="stroke:#000000;stroke-width:0.5;" x="640.3275" xlink:href="#meb63d1b80a" y="312.324545455"/>
      </g>
     </g>
     <g id="text_26">
      <!-- 80 -->
      <g transform="translate(632.6925 537.188125)scale(0.12 -0.12)">
       <use xlink:href="#BitstreamVeraSans-Roman-38"/>
       <use x="63.623046875" xlink:href="#BitstreamVeraSans-Roman-30"/>
      </g>
     </g>
    </g>
    <g id="xtick_12">
     <g id="line2d_53">
      <g>
       <use style="stroke:#000000;stroke-width:0.5;" x="773.55" xlink:href="#m650a4d56d7" y="524.07"/>
      </g>
     </g>
     <g id="line2d_54">
      <g>
       <use style="stroke:#000000;stroke-width:0.5;" x="773.55" xlink:href="#meb63d1b80a" y="312.324545455"/>
      </g>
     </g>
     <g id="text_27">
      <!-- 100 -->
      <g transform="translate(762.0975 537.188125)scale(0.12 -0.12)">
       <use xlink:href="#BitstreamVeraSans-Roman-31"/>
       <use x="63.623046875" xlink:href="#BitstreamVeraSans-Roman-30"/>
       <use x="127.24609375" xlink:href="#BitstreamVeraSans-Roman-30"/>
      </g>
     </g>
    </g>
   </g>
   <g id="matplotlib.axis_4">
    <g id="ytick_10">
     <g id="line2d_55">
      <g>
       <use style="stroke:#000000;stroke-width:0.5;" x="107.4375" xlink:href="#m0d079b9fbc" y="524.07"/>
      </g>
     </g>
     <g id="line2d_56">
      <g>
       <use style="stroke:#000000;stroke-width:0.5;" x="773.55" xlink:href="#m3e57f97f71" y="524.07"/>
      </g>
     </g>
     <g id="text_28">
      <!-- 0 -->
      <g transform="translate(95.8025 527.38125)scale(0.12 -0.12)">
       <use xlink:href="#BitstreamVeraSans-Roman-30"/>
      </g>
     </g>
    </g>
    <g id="ytick_11">
     <g id="line2d_57">
      <g>
       <use style="stroke:#000000;stroke-width:0.5;" x="107.4375" xlink:href="#m0d079b9fbc" y="488.779090909"/>
      </g>
     </g>
     <g id="line2d_58">
      <g>
       <use style="stroke:#000000;stroke-width:0.5;" x="773.55" xlink:href="#m3e57f97f71" y="488.779090909"/>
      </g>
     </g>
     <g id="text_29">
      <!-- 20 -->
      <g transform="translate(88.1675 492.090340909)scale(0.12 -0.12)">
       <use xlink:href="#BitstreamVeraSans-Roman-32"/>
       <use x="63.623046875" xlink:href="#BitstreamVeraSans-Roman-30"/>
      </g>
     </g>
    </g>
    <g id="ytick_12">
     <g id="line2d_59">
      <g>
       <use style="stroke:#000000;stroke-width:0.5;" x="107.4375" xlink:href="#m0d079b9fbc" y="453.488181818"/>
      </g>
     </g>
     <g id="line2d_60">
      <g>
       <use style="stroke:#000000;stroke-width:0.5;" x="773.55" xlink:href="#m3e57f97f71" y="453.488181818"/>
      </g>
     </g>
     <g id="text_30">
      <!-- 40 -->
      <g transform="translate(88.1675 456.799431818)scale(0.12 -0.12)">
       <use xlink:href="#BitstreamVeraSans-Roman-34"/>
       <use x="63.623046875" xlink:href="#BitstreamVeraSans-Roman-30"/>
      </g>
     </g>
    </g>
    <g id="ytick_13">
     <g id="line2d_61">
      <g>
       <use style="stroke:#000000;stroke-width:0.5;" x="107.4375" xlink:href="#m0d079b9fbc" y="418.197272727"/>
      </g>
     </g>
     <g id="line2d_62">
      <g>
       <use style="stroke:#000000;stroke-width:0.5;" x="773.55" xlink:href="#m3e57f97f71" y="418.197272727"/>
      </g>
     </g>
     <g id="text_31">
      <!-- 60 -->
      <g transform="translate(88.1675 421.508522727)scale(0.12 -0.12)">
       <use xlink:href="#BitstreamVeraSans-Roman-36"/>
       <use x="63.623046875" xlink:href="#BitstreamVeraSans-Roman-30"/>
      </g>
     </g>
    </g>
    <g id="ytick_14">
     <g id="line2d_63">
      <g>
       <use style="stroke:#000000;stroke-width:0.5;" x="107.4375" xlink:href="#m0d079b9fbc" y="382.906363636"/>
      </g>
     </g>
     <g id="line2d_64">
      <g>
       <use style="stroke:#000000;stroke-width:0.5;" x="773.55" xlink:href="#m3e57f97f71" y="382.906363636"/>
      </g>
     </g>
     <g id="text_32">
      <!-- 80 -->
      <g transform="translate(88.1675 386.217613636)scale(0.12 -0.12)">
       <use xlink:href="#BitstreamVeraSans-Roman-38"/>
       <use x="63.623046875" xlink:href="#BitstreamVeraSans-Roman-30"/>
      </g>
     </g>
    </g>
    <g id="ytick_15">
     <g id="line2d_65">
      <g>
       <use style="stroke:#000000;stroke-width:0.5;" x="107.4375" xlink:href="#m0d079b9fbc" y="347.615454545"/>
      </g>
     </g>
     <g id="line2d_66">
      <g>
       <use style="stroke:#000000;stroke-width:0.5;" x="773.55" xlink:href="#m3e57f97f71" y="347.615454545"/>
      </g>
     </g>
     <g id="text_33">
      <!-- 100 -->
      <g transform="translate(80.5325 350.926704545)scale(0.12 -0.12)">
       <use xlink:href="#BitstreamVeraSans-Roman-31"/>
       <use x="63.623046875" xlink:href="#BitstreamVeraSans-Roman-30"/>
       <use x="127.24609375" xlink:href="#BitstreamVeraSans-Roman-30"/>
      </g>
     </g>
    </g>
    <g id="ytick_16">
     <g id="line2d_67">
      <g>
       <use style="stroke:#000000;stroke-width:0.5;" x="107.4375" xlink:href="#m0d079b9fbc" y="312.324545455"/>
      </g>
     </g>
     <g id="line2d_68">
      <g>
       <use style="stroke:#000000;stroke-width:0.5;" x="773.55" xlink:href="#m3e57f97f71" y="312.324545455"/>
      </g>
     </g>
     <g id="text_34">
      <!-- 120 -->
      <g transform="translate(80.5325 315.635795455)scale(0.12 -0.12)">
       <use xlink:href="#BitstreamVeraSans-Roman-31"/>
       <use x="63.623046875" xlink:href="#BitstreamVeraSans-Roman-32"/>
       <use x="127.24609375" xlink:href="#BitstreamVeraSans-Roman-30"/>
      </g>
     </g>
    </g>
    <g id="text_35">
     <!-- Distance between Generations -->
     <defs>
      <path d="M 4.203125 54.6875 
L 13.1875 54.6875 
L 24.421875 12.015625 
L 35.59375 54.6875 
L 46.1875 54.6875 
L 57.421875 12.015625 
L 68.609375 54.6875 
L 77.59375 54.6875 
L 63.28125 0 
L 52.6875 0 
L 40.921875 44.828125 
L 29.109375 0 
L 18.5 0 
z
" id="BitstreamVeraSans-Roman-77"/>
      <path d="M 19.671875 64.796875 
L 19.671875 8.109375 
L 31.59375 8.109375 
Q 46.6875 8.109375 53.6875 14.9375 
Q 60.6875 21.78125 60.6875 36.53125 
Q 60.6875 51.171875 53.6875 57.984375 
Q 46.6875 64.796875 31.59375 64.796875 
z
M 9.8125 72.90625 
L 30.078125 72.90625 
Q 51.265625 72.90625 61.171875 64.09375 
Q 71.09375 55.28125 71.09375 36.53125 
Q 71.09375 17.671875 61.125 8.828125 
Q 51.171875 0 30.078125 0 
L 9.8125 0 
z
" id="BitstreamVeraSans-Roman-44"/>
      <path d="M 48.6875 27.296875 
Q 48.6875 37.203125 44.609375 42.84375 
Q 40.53125 48.484375 33.40625 48.484375 
Q 26.265625 48.484375 22.1875 42.84375 
Q 18.109375 37.203125 18.109375 27.296875 
Q 18.109375 17.390625 22.1875 11.75 
Q 26.265625 6.109375 33.40625 6.109375 
Q 40.53125 6.109375 44.609375 11.75 
Q 48.6875 17.390625 48.6875 27.296875 
M 18.109375 46.390625 
Q 20.953125 51.265625 25.265625 53.625 
Q 29.59375 56 35.59375 56 
Q 45.5625 56 51.78125 48.09375 
Q 58.015625 40.1875 58.015625 27.296875 
Q 58.015625 14.40625 51.78125 6.484375 
Q 45.5625 -1.421875 35.59375 -1.421875 
Q 29.59375 -1.421875 25.265625 0.953125 
Q 20.953125 3.328125 18.109375 8.203125 
L 18.109375 0 
L 9.078125 0 
L 9.078125 75.984375 
L 18.109375 75.984375 
z
" id="BitstreamVeraSans-Roman-62"/>
     </defs>
     <g transform="translate(72.6209375 526.221491477)rotate(-90.0)scale(0.14 -0.14)">
      <use xlink:href="#BitstreamVeraSans-Roman-44"/>
      <use x="77.001953125" xlink:href="#BitstreamVeraSans-Roman-69"/>
      <use x="104.78515625" xlink:href="#BitstreamVeraSans-Roman-73"/>
      <use x="156.884765625" xlink:href="#BitstreamVeraSans-Roman-74"/>
      <use x="196.09375" xlink:href="#BitstreamVeraSans-Roman-61"/>
      <use x="257.373046875" xlink:href="#BitstreamVeraSans-Roman-6e"/>
      <use x="320.751953125" xlink:href="#BitstreamVeraSans-Roman-63"/>
      <use x="375.732421875" xlink:href="#BitstreamVeraSans-Roman-65"/>
      <use x="437.255859375" xlink:href="#BitstreamVeraSans-Roman-20"/>
      <use x="469.04296875" xlink:href="#BitstreamVeraSans-Roman-62"/>
      <use x="532.51953125" xlink:href="#BitstreamVeraSans-Roman-65"/>
      <use x="594.04296875" xlink:href="#BitstreamVeraSans-Roman-74"/>
      <use x="633.251953125" xlink:href="#BitstreamVeraSans-Roman-77"/>
      <use x="715.0390625" xlink:href="#BitstreamVeraSans-Roman-65"/>
      <use x="776.5625" xlink:href="#BitstreamVeraSans-Roman-65"/>
      <use x="838.0859375" xlink:href="#BitstreamVeraSans-Roman-6e"/>
      <use x="901.46484375" xlink:href="#BitstreamVeraSans-Roman-20"/>
      <use x="933.251953125" xlink:href="#BitstreamVeraSans-Roman-47"/>
      <use x="1010.7421875" xlink:href="#BitstreamVeraSans-Roman-65"/>
      <use x="1072.265625" xlink:href="#BitstreamVeraSans-Roman-6e"/>
      <use x="1135.64453125" xlink:href="#BitstreamVeraSans-Roman-65"/>
      <use x="1197.16796875" xlink:href="#BitstreamVeraSans-Roman-72"/>
      <use x="1238.28125" xlink:href="#BitstreamVeraSans-Roman-61"/>
      <use x="1299.56054688" xlink:href="#BitstreamVeraSans-Roman-74"/>
      <use x="1338.76953125" xlink:href="#BitstreamVeraSans-Roman-69"/>
      <use x="1366.55273438" xlink:href="#BitstreamVeraSans-Roman-6f"/>
      <use x="1427.734375" xlink:href="#BitstreamVeraSans-Roman-6e"/>
      <use x="1491.11328125" xlink:href="#BitstreamVeraSans-Roman-73"/>
     </g>
    </g>
   </g>
  </g>
 </g>
 <defs>
  <clipPath id="p718eb521b9">
   <rect height="211.745454545" width="666.1125" x="107.4375" y="58.23"/>
  </clipPath>
  <clipPath id="p030c9bf148">
   <rect height="211.745454545" width="666.1125" x="107.4375" y="312.324545455"/>
  </clipPath>
 </defs>
</svg>
