<?xml version="1.0" encoding="utf-8" standalone="no"?>
<!DOCTYPE svg PUBLIC "-//W3C//DTD SVG 1.1//EN"
  "http://www.w3.org/Graphics/SVG/1.1/DTD/svg11.dtd">
<!-- Created with matplotlib (http://matplotlib.org/) -->
<svg height="479pt" version="1.1" viewBox="0 0 665 479" width="665pt" xmlns="http://www.w3.org/2000/svg" xmlns:xlink="http://www.w3.org/1999/xlink">
 <defs>
  <style type="text/css">
*{stroke-linecap:butt;stroke-linejoin:round;stroke-miterlimit:100000;}
  </style>
 </defs>
 <g id="figure_1">
  <g id="patch_1">
   <path d="M 0 479.7 
L 665.1 479.7 
L 665.1 0 
L 0 0 
z
" style="fill:#ffffff;"/>
  </g>
  <g id="axes_1">
   <g id="patch_2">
    <path d="M 83.1375 222.406364 
L 598.59 222.406364 
L 598.59 47.97 
L 83.1375 47.97 
z
" style="fill:#ffffff;"/>
   </g>
   <g id="line2d_1">
    <path clip-path="url(#p57b729b38e)" d="M 88.292025 222.406364 
L 93.44655 222.406364 
L 98.601075 222.406364 
L 103.7556 222.406364 
L 108.910125 222.406364 
L 114.06465 222.406364 
L 119.219175 222.406364 
L 124.3737 222.406364 
L 129.528225 222.406364 
L 134.68275 222.013882 
L 139.837275 221.577791 
L 144.9918 220.705609 
L 150.146325 219.615382 
L 155.30085 215.995827 
L 160.455375 213.030409 
L 165.6099 204.875509 
L 170.764425 205.224382 
L 175.91895 200.689036 
L 181.073475 200.122118 
L 186.228 195.2379 
L 191.382525 186.341645 
L 196.53705 189.089018 
L 201.691575 173.913055 
L 206.8461 164.885973 
L 212.000625 157.864909 
L 217.15515 137.6739 
L 222.309675 115.738527 
L 227.4642 85.517427 
L 232.618725 89.616682 
L 237.77325 108.8919 
L 242.927775 84.819682 
L 248.0823 80.284336 
L 253.236825 82.595618 
L 258.39135 87.3054 
L 263.545875 112.7295 
L 268.7004 107.845282 
L 273.854925 102.437755 
L 279.00945 109.633255 
L 284.163975 85.430209 
L 289.3185 81.854264 
L 294.473025 81.549 
L 299.62755 101.2167 
L 304.782075 74.091845 
L 309.9366 91.840745 
L 315.091125 75.3129 
L 320.24565 69.992591 
L 325.400175 104.749036 
L 330.5547 91.361045 
L 335.709225 87.872318 
L 340.86375 78.147491 
L 346.018275 77.144482 
L 351.1728 101.2167 
L 356.327325 91.753527 
L 361.48185 74.8332 
L 366.636375 75.618164 
L 371.7909 96.027218 
L 376.945425 77.449745 
L 382.09995 77.929445 
L 387.254475 73.001618 
L 392.409 95.155036 
L 397.563525 97.073836 
L 402.71805 88.133973 
L 407.872575 99.995645 
L 413.0271 68.073791 
L 418.181625 77.580573 
L 423.33615 75.225682 
L 428.490675 89.311418 
L 433.6452 71.257255 
L 438.799725 66.547473 
L 443.95425 87.261791 
L 449.108775 65.7189 
L 454.2633 68.248227 
L 459.417825 101.173091 
L 464.57235 75.661773 
L 469.726875 81.941482 
L 474.8814 72.391091 
L 480.035925 70.821164 
L 485.19045 85.648255 
L 490.344975 73.524927 
L 495.4995 75.487336 
L 500.654025 90.227209 
L 505.80855 65.762509 
L 510.963075 93.628718 
L 516.1176 78.278318 
L 521.272125 73.8738 
L 526.42665 63.407618 
L 531.581175 69.0768 
L 536.7357 85.255773 
L 541.890225 68.335445 
L 547.04475 68.727927 
L 552.199275 69.294845 
L 557.3538 68.379055 
L 562.508325 86.651264 
L 567.66285 83.598627 
L 572.817375 96.4197 
L 577.9719 69.774545 
L 583.126425 80.894864 
L 588.28095 67.899355 
L 593.435475 68.335445 
L 598.59 74.091845 
" style="fill:none;stroke:#0000ff;stroke-linecap:square;"/>
   </g>
   <g id="line2d_2">
    <path clip-path="url(#p57b729b38e)" d="M 88.292025 222.406364 
L 93.44655 222.406364 
L 98.601075 222.406364 
L 103.7556 221.926664 
L 108.910125 211.940182 
L 114.06465 208.407845 
L 119.219175 211.504091 
L 124.3737 197.723618 
L 129.528225 160.655891 
L 134.68275 176.180727 
L 139.837275 144.3897 
L 144.9918 164.188227 
L 150.146325 166.543118 
L 155.30085 143.125036 
L 160.455375 133.749082 
L 165.6099 138.851345 
L 170.764425 157.995736 
L 175.91895 128.036291 
L 181.073475 143.517518 
L 186.228 141.162627 
L 191.382525 159.391227 
L 196.53705 117.5265 
L 201.691575 146.264891 
L 206.8461 153.111518 
L 212.000625 120.361091 
L 217.15515 142.558118 
L 222.309675 124.329518 
L 227.4642 113.121982 
L 232.618725 127.949073 
L 237.77325 103.353545 
L 242.927775 91.927964 
L 248.0823 121.058836 
L 253.236825 128.864864 
L 258.39135 123.631773 
L 263.545875 89.049764 
L 268.7004 98.469327 
L 273.854925 95.198645 
L 279.00945 118.747555 
L 284.163975 95.416691 
L 289.3185 111.377618 
L 294.473025 118.660336 
L 299.62755 86.346 
L 304.782075 97.161055 
L 309.9366 110.679873 
L 315.091125 83.424191 
L 320.24565 74.222673 
L 325.400175 115.520482 
L 330.5547 121.887409 
L 335.709225 90.314427 
L 340.86375 83.4678 
L 346.018275 88.918936 
L 351.1728 116.915973 
L 356.327325 84.4272 
L 361.48185 97.771582 
L 366.636375 103.309936 
L 371.7909 94.457291 
L 376.945425 104.182118 
L 382.09995 80.502382 
L 387.254475 73.437709 
L 392.409 79.673809 
L 397.563525 81.636218 
L 402.71805 93.497891 
L 407.872575 78.278318 
L 413.0271 96.463309 
L 418.181625 110.505436 
L 423.33615 93.0618 
L 428.490675 89.573073 
L 433.6452 90.445255 
L 438.799725 95.94 
L 443.95425 86.258782 
L 449.108775 80.284336 
L 454.2633 84.078327 
L 459.417825 87.087355 
L 464.57235 77.013655 
L 469.726875 72.173045 
L 474.8814 88.918936 
L 480.035925 84.994118 
L 485.19045 80.502382 
L 490.344975 80.633209 
L 495.4995 88.090364 
L 500.654025 98.512936 
L 505.80855 77.929445 
L 510.963075 89.834727 
L 516.1176 97.8588 
L 521.272125 81.854264 
L 526.42665 85.473818 
L 531.581175 90.009164 
L 536.7357 74.8332 
L 541.890225 63.102355 
L 547.04475 88.831718 
L 552.199275 89.573073 
L 557.3538 88.962545 
L 562.508325 78.234709 
L 567.66285 87.915927 
L 572.817375 79.106891 
L 577.9719 84.645245 
L 583.126425 70.123418 
L 588.28095 80.284336 
L 593.435475 102.350536 
L 598.59 85.299382 
" style="fill:none;stroke:#008000;stroke-linecap:square;"/>
   </g>
   <g id="line2d_3">
    <path clip-path="url(#p57b729b38e)" d="M 88.292025 222.406364 
L 93.44655 222.406364 
L 98.601075 222.406364 
L 103.7556 222.275536 
L 108.910125 222.144709 
L 114.06465 221.490573 
L 119.219175 221.185309 
L 124.3737 221.708618 
L 129.528225 220.792827 
L 134.68275 220.967264 
L 139.837275 217.871018 
L 144.9918 216.562745 
L 150.146325 216.083045 
L 155.30085 210.1086 
L 160.455375 208.277018 
L 165.6099 204.221373 
L 170.764425 196.982264 
L 175.91895 180.8469 
L 181.073475 151.061891 
L 186.228 151.149109 
L 191.382525 114.430255 
L 196.53705 146.657373 
L 201.691575 149.404745 
L 206.8461 128.5596 
L 212.000625 130.783664 
L 217.15515 93.890373 
L 222.309675 100.518955 
L 227.4642 93.585109 
L 232.618725 122.846809 
L 237.77325 87.654273 
L 242.927775 75.225682 
L 248.0823 102.743018 
L 253.236825 117.918982 
L 258.39135 84.732464 
L 263.545875 80.458773 
L 268.7004 79.019673 
L 273.854925 112.860327 
L 279.00945 116.5671 
L 284.163975 92.625709 
L 289.3185 87.959536 
L 294.473025 77.100873 
L 299.62755 70.951991 
L 304.782075 73.655755 
L 309.9366 74.266282 
L 315.091125 101.827227 
L 320.24565 63.102355 
L 325.400175 68.553491 
L 330.5547 65.195591 
L 335.709225 85.735473 
L 340.86375 79.979073 
L 346.018275 80.676818 
L 351.1728 89.965555 
L 356.327325 66.939955 
L 361.48185 68.553491 
L 366.636375 76.664782 
L 371.7909 97.204664 
L 376.945425 79.717418 
L 382.09995 65.849727 
L 387.254475 72.565527 
L 392.409 94.806164 
L 397.563525 86.520436 
L 402.71805 88.570064 
L 407.872575 64.148973 
L 413.0271 89.180591 
L 418.181625 69.774545 
L 423.33615 89.180591 
L 428.490675 67.288827 
L 433.6452 77.2317 
L 438.799725 64.541455 
L 443.95425 78.845236 
L 449.108775 80.676818 
L 454.2633 60.224155 
L 459.417825 69.164018 
L 464.57235 73.8738 
L 469.726875 73.917409 
L 474.8814 84.994118 
L 480.035925 64.236191 
L 485.19045 95.634736 
L 490.344975 74.222673 
L 495.4995 65.326418 
L 500.654025 92.669318 
L 505.80855 75.705382 
L 510.963075 91.840745 
L 516.1176 88.352018 
L 521.272125 80.240727 
L 526.42665 70.9956 
L 531.581175 88.221191 
L 536.7357 72.739964 
L 541.890225 80.764036 
L 547.04475 84.034718 
L 552.199275 89.965555 
L 557.3538 72.085827 
L 562.508325 75.574555 
L 567.66285 89.398636 
L 572.817375 87.261791 
L 577.9719 60.224155 
L 583.126425 87.3054 
L 588.28095 73.699364 
L 593.435475 78.627191 
L 598.59 91.448264 
" style="fill:none;stroke:#ff0000;stroke-linecap:square;"/>
   </g>
   <g id="patch_3">
    <path d="M 83.1375 47.97 
L 598.59 47.97 
" style="fill:none;stroke:#000000;stroke-linecap:square;stroke-linejoin:miter;"/>
   </g>
   <g id="patch_4">
    <path d="M 598.59 222.406364 
L 598.59 47.97 
" style="fill:none;stroke:#000000;stroke-linecap:square;stroke-linejoin:miter;"/>
   </g>
   <g id="patch_5">
    <path d="M 83.1375 222.406364 
L 598.59 222.406364 
" style="fill:none;stroke:#000000;stroke-linecap:square;stroke-linejoin:miter;"/>
   </g>
   <g id="patch_6">
    <path d="M 83.1375 222.406364 
L 83.1375 47.97 
" style="fill:none;stroke:#000000;stroke-linecap:square;stroke-linejoin:miter;"/>
   </g>
   <g id="matplotlib.axis_1">
    <g id="xtick_1">
     <g id="line2d_4">
      <defs>
       <path d="M 0 0 
L 0 -4 
" id="m99935f2d86" style="stroke:#000000;stroke-width:0.5;"/>
      </defs>
      <g>
       <use style="stroke:#000000;stroke-width:0.5;" x="83.1375" xlink:href="#m99935f2d86" y="222.406363636"/>
      </g>
     </g>
     <g id="line2d_5">
      <defs>
       <path d="M 0 0 
L 0 4 
" id="meb8d34f35a" style="stroke:#000000;stroke-width:0.5;"/>
      </defs>
      <g>
       <use style="stroke:#000000;stroke-width:0.5;" x="83.1375" xlink:href="#meb8d34f35a" y="47.97"/>
      </g>
     </g>
     <g id="text_1">
      <!-- 0 -->
      <defs>
       <path d="M 31.78125 66.40625 
Q 24.171875 66.40625 20.328125 58.90625 
Q 16.5 51.421875 16.5 36.375 
Q 16.5 21.390625 20.328125 13.890625 
Q 24.171875 6.390625 31.78125 6.390625 
Q 39.453125 6.390625 43.28125 13.890625 
Q 47.125 21.390625 47.125 36.375 
Q 47.125 51.421875 43.28125 58.90625 
Q 39.453125 66.40625 31.78125 66.40625 
M 31.78125 74.21875 
Q 44.046875 74.21875 50.515625 64.515625 
Q 56.984375 54.828125 56.984375 36.375 
Q 56.984375 17.96875 50.515625 8.265625 
Q 44.046875 -1.421875 31.78125 -1.421875 
Q 19.53125 -1.421875 13.0625 8.265625 
Q 6.59375 17.96875 6.59375 36.375 
Q 6.59375 54.828125 13.0625 64.515625 
Q 19.53125 74.21875 31.78125 74.21875 
" id="BitstreamVeraSans-Roman-30"/>
      </defs>
      <g transform="translate(79.32 235.524488636)scale(0.12 -0.12)">
       <use xlink:href="#BitstreamVeraSans-Roman-30"/>
      </g>
     </g>
    </g>
    <g id="xtick_2">
     <g id="line2d_6">
      <g>
       <use style="stroke:#000000;stroke-width:0.5;" x="186.228" xlink:href="#m99935f2d86" y="222.406363636"/>
      </g>
     </g>
     <g id="line2d_7">
      <g>
       <use style="stroke:#000000;stroke-width:0.5;" x="186.228" xlink:href="#meb8d34f35a" y="47.97"/>
      </g>
     </g>
     <g id="text_2">
      <!-- 20 -->
      <defs>
       <path d="M 19.1875 8.296875 
L 53.609375 8.296875 
L 53.609375 0 
L 7.328125 0 
L 7.328125 8.296875 
Q 12.9375 14.109375 22.625 23.890625 
Q 32.328125 33.6875 34.8125 36.53125 
Q 39.546875 41.84375 41.421875 45.53125 
Q 43.3125 49.21875 43.3125 52.78125 
Q 43.3125 58.59375 39.234375 62.25 
Q 35.15625 65.921875 28.609375 65.921875 
Q 23.96875 65.921875 18.8125 64.3125 
Q 13.671875 62.703125 7.8125 59.421875 
L 7.8125 69.390625 
Q 13.765625 71.78125 18.9375 73 
Q 24.125 74.21875 28.421875 74.21875 
Q 39.75 74.21875 46.484375 68.546875 
Q 53.21875 62.890625 53.21875 53.421875 
Q 53.21875 48.921875 51.53125 44.890625 
Q 49.859375 40.875 45.40625 35.40625 
Q 44.1875 33.984375 37.640625 27.21875 
Q 31.109375 20.453125 19.1875 8.296875 
" id="BitstreamVeraSans-Roman-32"/>
      </defs>
      <g transform="translate(178.593 235.524488636)scale(0.12 -0.12)">
       <use xlink:href="#BitstreamVeraSans-Roman-32"/>
       <use x="63.623046875" xlink:href="#BitstreamVeraSans-Roman-30"/>
      </g>
     </g>
    </g>
    <g id="xtick_3">
     <g id="line2d_8">
      <g>
       <use style="stroke:#000000;stroke-width:0.5;" x="289.3185" xlink:href="#m99935f2d86" y="222.406363636"/>
      </g>
     </g>
     <g id="line2d_9">
      <g>
       <use style="stroke:#000000;stroke-width:0.5;" x="289.3185" xlink:href="#meb8d34f35a" y="47.97"/>
      </g>
     </g>
     <g id="text_3">
      <!-- 40 -->
      <defs>
       <path d="M 37.796875 64.3125 
L 12.890625 25.390625 
L 37.796875 25.390625 
z
M 35.203125 72.90625 
L 47.609375 72.90625 
L 47.609375 25.390625 
L 58.015625 25.390625 
L 58.015625 17.1875 
L 47.609375 17.1875 
L 47.609375 0 
L 37.796875 0 
L 37.796875 17.1875 
L 4.890625 17.1875 
L 4.890625 26.703125 
z
" id="BitstreamVeraSans-Roman-34"/>
      </defs>
      <g transform="translate(281.6835 235.524488636)scale(0.12 -0.12)">
       <use xlink:href="#BitstreamVeraSans-Roman-34"/>
       <use x="63.623046875" xlink:href="#BitstreamVeraSans-Roman-30"/>
      </g>
     </g>
    </g>
    <g id="xtick_4">
     <g id="line2d_10">
      <g>
       <use style="stroke:#000000;stroke-width:0.5;" x="392.409" xlink:href="#m99935f2d86" y="222.406363636"/>
      </g>
     </g>
     <g id="line2d_11">
      <g>
       <use style="stroke:#000000;stroke-width:0.5;" x="392.409" xlink:href="#meb8d34f35a" y="47.97"/>
      </g>
     </g>
     <g id="text_4">
      <!-- 60 -->
      <defs>
       <path d="M 33.015625 40.375 
Q 26.375 40.375 22.484375 35.828125 
Q 18.609375 31.296875 18.609375 23.390625 
Q 18.609375 15.53125 22.484375 10.953125 
Q 26.375 6.390625 33.015625 6.390625 
Q 39.65625 6.390625 43.53125 10.953125 
Q 47.40625 15.53125 47.40625 23.390625 
Q 47.40625 31.296875 43.53125 35.828125 
Q 39.65625 40.375 33.015625 40.375 
M 52.59375 71.296875 
L 52.59375 62.3125 
Q 48.875 64.0625 45.09375 64.984375 
Q 41.3125 65.921875 37.59375 65.921875 
Q 27.828125 65.921875 22.671875 59.328125 
Q 17.53125 52.734375 16.796875 39.40625 
Q 19.671875 43.65625 24.015625 45.921875 
Q 28.375 48.1875 33.59375 48.1875 
Q 44.578125 48.1875 50.953125 41.515625 
Q 57.328125 34.859375 57.328125 23.390625 
Q 57.328125 12.15625 50.6875 5.359375 
Q 44.046875 -1.421875 33.015625 -1.421875 
Q 20.359375 -1.421875 13.671875 8.265625 
Q 6.984375 17.96875 6.984375 36.375 
Q 6.984375 53.65625 15.1875 63.9375 
Q 23.390625 74.21875 37.203125 74.21875 
Q 40.921875 74.21875 44.703125 73.484375 
Q 48.484375 72.75 52.59375 71.296875 
" id="BitstreamVeraSans-Roman-36"/>
      </defs>
      <g transform="translate(384.774 235.524488636)scale(0.12 -0.12)">
       <use xlink:href="#BitstreamVeraSans-Roman-36"/>
       <use x="63.623046875" xlink:href="#BitstreamVeraSans-Roman-30"/>
      </g>
     </g>
    </g>
    <g id="xtick_5">
     <g id="line2d_12">
      <g>
       <use style="stroke:#000000;stroke-width:0.5;" x="495.4995" xlink:href="#m99935f2d86" y="222.406363636"/>
      </g>
     </g>
     <g id="line2d_13">
      <g>
       <use style="stroke:#000000;stroke-width:0.5;" x="495.4995" xlink:href="#meb8d34f35a" y="47.97"/>
      </g>
     </g>
     <g id="text_5">
      <!-- 80 -->
      <defs>
       <path d="M 31.78125 34.625 
Q 24.75 34.625 20.71875 30.859375 
Q 16.703125 27.09375 16.703125 20.515625 
Q 16.703125 13.921875 20.71875 10.15625 
Q 24.75 6.390625 31.78125 6.390625 
Q 38.8125 6.390625 42.859375 10.171875 
Q 46.921875 13.96875 46.921875 20.515625 
Q 46.921875 27.09375 42.890625 30.859375 
Q 38.875 34.625 31.78125 34.625 
M 21.921875 38.8125 
Q 15.578125 40.375 12.03125 44.71875 
Q 8.5 49.078125 8.5 55.328125 
Q 8.5 64.0625 14.71875 69.140625 
Q 20.953125 74.21875 31.78125 74.21875 
Q 42.671875 74.21875 48.875 69.140625 
Q 55.078125 64.0625 55.078125 55.328125 
Q 55.078125 49.078125 51.53125 44.71875 
Q 48 40.375 41.703125 38.8125 
Q 48.828125 37.15625 52.796875 32.3125 
Q 56.78125 27.484375 56.78125 20.515625 
Q 56.78125 9.90625 50.3125 4.234375 
Q 43.84375 -1.421875 31.78125 -1.421875 
Q 19.734375 -1.421875 13.25 4.234375 
Q 6.78125 9.90625 6.78125 20.515625 
Q 6.78125 27.484375 10.78125 32.3125 
Q 14.796875 37.15625 21.921875 38.8125 
M 18.3125 54.390625 
Q 18.3125 48.734375 21.84375 45.5625 
Q 25.390625 42.390625 31.78125 42.390625 
Q 38.140625 42.390625 41.71875 45.5625 
Q 45.3125 48.734375 45.3125 54.390625 
Q 45.3125 60.0625 41.71875 63.234375 
Q 38.140625 66.40625 31.78125 66.40625 
Q 25.390625 66.40625 21.84375 63.234375 
Q 18.3125 60.0625 18.3125 54.390625 
" id="BitstreamVeraSans-Roman-38"/>
      </defs>
      <g transform="translate(487.8645 235.524488636)scale(0.12 -0.12)">
       <use xlink:href="#BitstreamVeraSans-Roman-38"/>
       <use x="63.623046875" xlink:href="#BitstreamVeraSans-Roman-30"/>
      </g>
     </g>
    </g>
    <g id="xtick_6">
     <g id="line2d_14">
      <g>
       <use style="stroke:#000000;stroke-width:0.5;" x="598.59" xlink:href="#m99935f2d86" y="222.406363636"/>
      </g>
     </g>
     <g id="line2d_15">
      <g>
       <use style="stroke:#000000;stroke-width:0.5;" x="598.59" xlink:href="#meb8d34f35a" y="47.97"/>
      </g>
     </g>
     <g id="text_6">
      <!-- 100 -->
      <defs>
       <path d="M 12.40625 8.296875 
L 28.515625 8.296875 
L 28.515625 63.921875 
L 10.984375 60.40625 
L 10.984375 69.390625 
L 28.421875 72.90625 
L 38.28125 72.90625 
L 38.28125 8.296875 
L 54.390625 8.296875 
L 54.390625 0 
L 12.40625 0 
z
" id="BitstreamVeraSans-Roman-31"/>
      </defs>
      <g transform="translate(587.1375 235.524488636)scale(0.12 -0.12)">
       <use xlink:href="#BitstreamVeraSans-Roman-31"/>
       <use x="63.623046875" xlink:href="#BitstreamVeraSans-Roman-30"/>
       <use x="127.24609375" xlink:href="#BitstreamVeraSans-Roman-30"/>
      </g>
     </g>
    </g>
    <g id="text_7">
     <!-- Generation -->
     <defs>
      <path d="M 54.890625 33.015625 
L 54.890625 0 
L 45.90625 0 
L 45.90625 32.71875 
Q 45.90625 40.484375 42.875 44.328125 
Q 39.84375 48.1875 33.796875 48.1875 
Q 26.515625 48.1875 22.3125 43.546875 
Q 18.109375 38.921875 18.109375 30.90625 
L 18.109375 0 
L 9.078125 0 
L 9.078125 54.6875 
L 18.109375 54.6875 
L 18.109375 46.1875 
Q 21.34375 51.125 25.703125 53.5625 
Q 30.078125 56 35.796875 56 
Q 45.21875 56 50.046875 50.171875 
Q 54.890625 44.34375 54.890625 33.015625 
" id="BitstreamVeraSans-Roman-6e"/>
      <path d="M 41.109375 46.296875 
Q 39.59375 47.171875 37.8125 47.578125 
Q 36.03125 48 33.890625 48 
Q 26.265625 48 22.1875 43.046875 
Q 18.109375 38.09375 18.109375 28.8125 
L 18.109375 0 
L 9.078125 0 
L 9.078125 54.6875 
L 18.109375 54.6875 
L 18.109375 46.1875 
Q 20.953125 51.171875 25.484375 53.578125 
Q 30.03125 56 36.53125 56 
Q 37.453125 56 38.578125 55.875 
Q 39.703125 55.765625 41.0625 55.515625 
z
" id="BitstreamVeraSans-Roman-72"/>
      <path d="M 30.609375 48.390625 
Q 23.390625 48.390625 19.1875 42.75 
Q 14.984375 37.109375 14.984375 27.296875 
Q 14.984375 17.484375 19.15625 11.84375 
Q 23.34375 6.203125 30.609375 6.203125 
Q 37.796875 6.203125 41.984375 11.859375 
Q 46.1875 17.53125 46.1875 27.296875 
Q 46.1875 37.015625 41.984375 42.703125 
Q 37.796875 48.390625 30.609375 48.390625 
M 30.609375 56 
Q 42.328125 56 49.015625 48.375 
Q 55.71875 40.765625 55.71875 27.296875 
Q 55.71875 13.875 49.015625 6.21875 
Q 42.328125 -1.421875 30.609375 -1.421875 
Q 18.84375 -1.421875 12.171875 6.21875 
Q 5.515625 13.875 5.515625 27.296875 
Q 5.515625 40.765625 12.171875 48.375 
Q 18.84375 56 30.609375 56 
" id="BitstreamVeraSans-Roman-6f"/>
      <path d="M 59.515625 10.40625 
L 59.515625 29.984375 
L 43.40625 29.984375 
L 43.40625 38.09375 
L 69.28125 38.09375 
L 69.28125 6.78125 
Q 63.578125 2.734375 56.6875 0.65625 
Q 49.8125 -1.421875 42 -1.421875 
Q 24.90625 -1.421875 15.25 8.5625 
Q 5.609375 18.5625 5.609375 36.375 
Q 5.609375 54.25 15.25 64.234375 
Q 24.90625 74.21875 42 74.21875 
Q 49.125 74.21875 55.546875 72.453125 
Q 61.96875 70.703125 67.390625 67.28125 
L 67.390625 56.78125 
Q 61.921875 61.421875 55.765625 63.765625 
Q 49.609375 66.109375 42.828125 66.109375 
Q 29.4375 66.109375 22.71875 58.640625 
Q 16.015625 51.171875 16.015625 36.375 
Q 16.015625 21.625 22.71875 14.15625 
Q 29.4375 6.6875 42.828125 6.6875 
Q 48.046875 6.6875 52.140625 7.59375 
Q 56.25 8.5 59.515625 10.40625 
" id="BitstreamVeraSans-Roman-47"/>
      <path d="M 9.421875 54.6875 
L 18.40625 54.6875 
L 18.40625 0 
L 9.421875 0 
z
M 9.421875 75.984375 
L 18.40625 75.984375 
L 18.40625 64.59375 
L 9.421875 64.59375 
z
" id="BitstreamVeraSans-Roman-69"/>
      <path d="M 56.203125 29.59375 
L 56.203125 25.203125 
L 14.890625 25.203125 
Q 15.484375 15.921875 20.484375 11.0625 
Q 25.484375 6.203125 34.421875 6.203125 
Q 39.59375 6.203125 44.453125 7.46875 
Q 49.3125 8.734375 54.109375 11.28125 
L 54.109375 2.78125 
Q 49.265625 0.734375 44.1875 -0.34375 
Q 39.109375 -1.421875 33.890625 -1.421875 
Q 20.796875 -1.421875 13.15625 6.1875 
Q 5.515625 13.8125 5.515625 26.8125 
Q 5.515625 40.234375 12.765625 48.109375 
Q 20.015625 56 32.328125 56 
Q 43.359375 56 49.78125 48.890625 
Q 56.203125 41.796875 56.203125 29.59375 
M 47.21875 32.234375 
Q 47.125 39.59375 43.09375 43.984375 
Q 39.0625 48.390625 32.421875 48.390625 
Q 24.90625 48.390625 20.390625 44.140625 
Q 15.875 39.890625 15.1875 32.171875 
z
" id="BitstreamVeraSans-Roman-65"/>
      <path d="M 18.3125 70.21875 
L 18.3125 54.6875 
L 36.8125 54.6875 
L 36.8125 47.703125 
L 18.3125 47.703125 
L 18.3125 18.015625 
Q 18.3125 11.328125 20.140625 9.421875 
Q 21.96875 7.515625 27.59375 7.515625 
L 36.8125 7.515625 
L 36.8125 0 
L 27.59375 0 
Q 17.1875 0 13.234375 3.875 
Q 9.28125 7.765625 9.28125 18.015625 
L 9.28125 47.703125 
L 2.6875 47.703125 
L 2.6875 54.6875 
L 9.28125 54.6875 
L 9.28125 70.21875 
z
" id="BitstreamVeraSans-Roman-74"/>
      <path d="M 34.28125 27.484375 
Q 23.390625 27.484375 19.1875 25 
Q 14.984375 22.515625 14.984375 16.5 
Q 14.984375 11.71875 18.140625 8.90625 
Q 21.296875 6.109375 26.703125 6.109375 
Q 34.1875 6.109375 38.703125 11.40625 
Q 43.21875 16.703125 43.21875 25.484375 
L 43.21875 27.484375 
z
M 52.203125 31.203125 
L 52.203125 0 
L 43.21875 0 
L 43.21875 8.296875 
Q 40.140625 3.328125 35.546875 0.953125 
Q 30.953125 -1.421875 24.3125 -1.421875 
Q 15.921875 -1.421875 10.953125 3.296875 
Q 6 8.015625 6 15.921875 
Q 6 25.140625 12.171875 29.828125 
Q 18.359375 34.515625 30.609375 34.515625 
L 43.21875 34.515625 
L 43.21875 35.40625 
Q 43.21875 41.609375 39.140625 45 
Q 35.0625 48.390625 27.6875 48.390625 
Q 23 48.390625 18.546875 47.265625 
Q 14.109375 46.140625 10.015625 43.890625 
L 10.015625 52.203125 
Q 14.9375 54.109375 19.578125 55.046875 
Q 24.21875 56 28.609375 56 
Q 40.484375 56 46.34375 49.84375 
Q 52.203125 43.703125 52.203125 31.203125 
" id="BitstreamVeraSans-Roman-61"/>
     </defs>
     <g transform="translate(301.81359375 253.657926136)scale(0.14 -0.14)">
      <use xlink:href="#BitstreamVeraSans-Roman-47"/>
      <use x="77.490234375" xlink:href="#BitstreamVeraSans-Roman-65"/>
      <use x="139.013671875" xlink:href="#BitstreamVeraSans-Roman-6e"/>
      <use x="202.392578125" xlink:href="#BitstreamVeraSans-Roman-65"/>
      <use x="263.916015625" xlink:href="#BitstreamVeraSans-Roman-72"/>
      <use x="305.029296875" xlink:href="#BitstreamVeraSans-Roman-61"/>
      <use x="366.30859375" xlink:href="#BitstreamVeraSans-Roman-74"/>
      <use x="405.517578125" xlink:href="#BitstreamVeraSans-Roman-69"/>
      <use x="433.30078125" xlink:href="#BitstreamVeraSans-Roman-6f"/>
      <use x="494.482421875" xlink:href="#BitstreamVeraSans-Roman-6e"/>
     </g>
    </g>
   </g>
   <g id="matplotlib.axis_2">
    <g id="ytick_1">
     <g id="line2d_16">
      <defs>
       <path d="M 0 0 
L 4 0 
" id="mac223dcd73" style="stroke:#000000;stroke-width:0.5;"/>
      </defs>
      <g>
       <use style="stroke:#000000;stroke-width:0.5;" x="83.1375" xlink:href="#mac223dcd73" y="222.406363636"/>
      </g>
     </g>
     <g id="line2d_17">
      <defs>
       <path d="M 0 0 
L -4 0 
" id="m60b8f06431" style="stroke:#000000;stroke-width:0.5;"/>
      </defs>
      <g>
       <use style="stroke:#000000;stroke-width:0.5;" x="598.59" xlink:href="#m60b8f06431" y="222.406363636"/>
      </g>
     </g>
     <g id="text_8">
      <!-- 0 -->
      <g transform="translate(71.5025 225.717613636)scale(0.12 -0.12)">
       <use xlink:href="#BitstreamVeraSans-Roman-30"/>
      </g>
     </g>
    </g>
    <g id="ytick_2">
     <g id="line2d_18">
      <g>
       <use style="stroke:#000000;stroke-width:0.5;" x="83.1375" xlink:href="#mac223dcd73" y="200.601818182"/>
      </g>
     </g>
     <g id="line2d_19">
      <g>
       <use style="stroke:#000000;stroke-width:0.5;" x="598.59" xlink:href="#m60b8f06431" y="200.601818182"/>
      </g>
     </g>
     <g id="text_9">
      <!-- 10 -->
      <g transform="translate(63.8675 203.913068182)scale(0.12 -0.12)">
       <use xlink:href="#BitstreamVeraSans-Roman-31"/>
       <use x="63.623046875" xlink:href="#BitstreamVeraSans-Roman-30"/>
      </g>
     </g>
    </g>
    <g id="ytick_3">
     <g id="line2d_20">
      <g>
       <use style="stroke:#000000;stroke-width:0.5;" x="83.1375" xlink:href="#mac223dcd73" y="178.797272727"/>
      </g>
     </g>
     <g id="line2d_21">
      <g>
       <use style="stroke:#000000;stroke-width:0.5;" x="598.59" xlink:href="#m60b8f06431" y="178.797272727"/>
      </g>
     </g>
     <g id="text_10">
      <!-- 20 -->
      <g transform="translate(63.8675 182.108522727)scale(0.12 -0.12)">
       <use xlink:href="#BitstreamVeraSans-Roman-32"/>
       <use x="63.623046875" xlink:href="#BitstreamVeraSans-Roman-30"/>
      </g>
     </g>
    </g>
    <g id="ytick_4">
     <g id="line2d_22">
      <g>
       <use style="stroke:#000000;stroke-width:0.5;" x="83.1375" xlink:href="#mac223dcd73" y="156.992727273"/>
      </g>
     </g>
     <g id="line2d_23">
      <g>
       <use style="stroke:#000000;stroke-width:0.5;" x="598.59" xlink:href="#m60b8f06431" y="156.992727273"/>
      </g>
     </g>
     <g id="text_11">
      <!-- 30 -->
      <defs>
       <path d="M 40.578125 39.3125 
Q 47.65625 37.796875 51.625 33 
Q 55.609375 28.21875 55.609375 21.1875 
Q 55.609375 10.40625 48.1875 4.484375 
Q 40.765625 -1.421875 27.09375 -1.421875 
Q 22.515625 -1.421875 17.65625 -0.515625 
Q 12.796875 0.390625 7.625 2.203125 
L 7.625 11.71875 
Q 11.71875 9.328125 16.59375 8.109375 
Q 21.484375 6.890625 26.8125 6.890625 
Q 36.078125 6.890625 40.9375 10.546875 
Q 45.796875 14.203125 45.796875 21.1875 
Q 45.796875 27.640625 41.28125 31.265625 
Q 36.765625 34.90625 28.71875 34.90625 
L 20.21875 34.90625 
L 20.21875 43.015625 
L 29.109375 43.015625 
Q 36.375 43.015625 40.234375 45.921875 
Q 44.09375 48.828125 44.09375 54.296875 
Q 44.09375 59.90625 40.109375 62.90625 
Q 36.140625 65.921875 28.71875 65.921875 
Q 24.65625 65.921875 20.015625 65.03125 
Q 15.375 64.15625 9.8125 62.3125 
L 9.8125 71.09375 
Q 15.4375 72.65625 20.34375 73.4375 
Q 25.25 74.21875 29.59375 74.21875 
Q 40.828125 74.21875 47.359375 69.109375 
Q 53.90625 64.015625 53.90625 55.328125 
Q 53.90625 49.265625 50.4375 45.09375 
Q 46.96875 40.921875 40.578125 39.3125 
" id="BitstreamVeraSans-Roman-33"/>
      </defs>
      <g transform="translate(63.8675 160.303977273)scale(0.12 -0.12)">
       <use xlink:href="#BitstreamVeraSans-Roman-33"/>
       <use x="63.623046875" xlink:href="#BitstreamVeraSans-Roman-30"/>
      </g>
     </g>
    </g>
    <g id="ytick_5">
     <g id="line2d_24">
      <g>
       <use style="stroke:#000000;stroke-width:0.5;" x="83.1375" xlink:href="#mac223dcd73" y="135.188181818"/>
      </g>
     </g>
     <g id="line2d_25">
      <g>
       <use style="stroke:#000000;stroke-width:0.5;" x="598.59" xlink:href="#m60b8f06431" y="135.188181818"/>
      </g>
     </g>
     <g id="text_12">
      <!-- 40 -->
      <g transform="translate(63.8675 138.499431818)scale(0.12 -0.12)">
       <use xlink:href="#BitstreamVeraSans-Roman-34"/>
       <use x="63.623046875" xlink:href="#BitstreamVeraSans-Roman-30"/>
      </g>
     </g>
    </g>
    <g id="ytick_6">
     <g id="line2d_26">
      <g>
       <use style="stroke:#000000;stroke-width:0.5;" x="83.1375" xlink:href="#mac223dcd73" y="113.383636364"/>
      </g>
     </g>
     <g id="line2d_27">
      <g>
       <use style="stroke:#000000;stroke-width:0.5;" x="598.59" xlink:href="#m60b8f06431" y="113.383636364"/>
      </g>
     </g>
     <g id="text_13">
      <!-- 50 -->
      <defs>
       <path d="M 10.796875 72.90625 
L 49.515625 72.90625 
L 49.515625 64.59375 
L 19.828125 64.59375 
L 19.828125 46.734375 
Q 21.96875 47.46875 24.109375 47.828125 
Q 26.265625 48.1875 28.421875 48.1875 
Q 40.625 48.1875 47.75 41.5 
Q 54.890625 34.8125 54.890625 23.390625 
Q 54.890625 11.625 47.5625 5.09375 
Q 40.234375 -1.421875 26.90625 -1.421875 
Q 22.3125 -1.421875 17.546875 -0.640625 
Q 12.796875 0.140625 7.71875 1.703125 
L 7.71875 11.625 
Q 12.109375 9.234375 16.796875 8.0625 
Q 21.484375 6.890625 26.703125 6.890625 
Q 35.15625 6.890625 40.078125 11.328125 
Q 45.015625 15.765625 45.015625 23.390625 
Q 45.015625 31 40.078125 35.4375 
Q 35.15625 39.890625 26.703125 39.890625 
Q 22.75 39.890625 18.8125 39.015625 
Q 14.890625 38.140625 10.796875 36.28125 
z
" id="BitstreamVeraSans-Roman-35"/>
      </defs>
      <g transform="translate(63.8675 116.694886364)scale(0.12 -0.12)">
       <use xlink:href="#BitstreamVeraSans-Roman-35"/>
       <use x="63.623046875" xlink:href="#BitstreamVeraSans-Roman-30"/>
      </g>
     </g>
    </g>
    <g id="ytick_7">
     <g id="line2d_28">
      <g>
       <use style="stroke:#000000;stroke-width:0.5;" x="83.1375" xlink:href="#mac223dcd73" y="91.5790909091"/>
      </g>
     </g>
     <g id="line2d_29">
      <g>
       <use style="stroke:#000000;stroke-width:0.5;" x="598.59" xlink:href="#m60b8f06431" y="91.5790909091"/>
      </g>
     </g>
     <g id="text_14">
      <!-- 60 -->
      <g transform="translate(63.8675 94.8903409091)scale(0.12 -0.12)">
       <use xlink:href="#BitstreamVeraSans-Roman-36"/>
       <use x="63.623046875" xlink:href="#BitstreamVeraSans-Roman-30"/>
      </g>
     </g>
    </g>
    <g id="ytick_8">
     <g id="line2d_30">
      <g>
       <use style="stroke:#000000;stroke-width:0.5;" x="83.1375" xlink:href="#mac223dcd73" y="69.7745454545"/>
      </g>
     </g>
     <g id="line2d_31">
      <g>
       <use style="stroke:#000000;stroke-width:0.5;" x="598.59" xlink:href="#m60b8f06431" y="69.7745454545"/>
      </g>
     </g>
     <g id="text_15">
      <!-- 70 -->
      <defs>
       <path d="M 8.203125 72.90625 
L 55.078125 72.90625 
L 55.078125 68.703125 
L 28.609375 0 
L 18.3125 0 
L 43.21875 64.59375 
L 8.203125 64.59375 
z
" id="BitstreamVeraSans-Roman-37"/>
      </defs>
      <g transform="translate(63.8675 73.0857954545)scale(0.12 -0.12)">
       <use xlink:href="#BitstreamVeraSans-Roman-37"/>
       <use x="63.623046875" xlink:href="#BitstreamVeraSans-Roman-30"/>
      </g>
     </g>
    </g>
    <g id="ytick_9">
     <g id="line2d_32">
      <g>
       <use style="stroke:#000000;stroke-width:0.5;" x="83.1375" xlink:href="#mac223dcd73" y="47.97"/>
      </g>
     </g>
     <g id="line2d_33">
      <g>
       <use style="stroke:#000000;stroke-width:0.5;" x="598.59" xlink:href="#m60b8f06431" y="47.97"/>
      </g>
     </g>
     <g id="text_16">
      <!-- 80 -->
      <g transform="translate(63.8675 51.28125)scale(0.12 -0.12)">
       <use xlink:href="#BitstreamVeraSans-Roman-38"/>
       <use x="63.623046875" xlink:href="#BitstreamVeraSans-Roman-30"/>
      </g>
     </g>
    </g>
    <g id="text_17">
     <!-- Average Fitness -->
     <defs>
      <path id="BitstreamVeraSans-Roman-20"/>
      <path d="M 9.8125 72.90625 
L 51.703125 72.90625 
L 51.703125 64.59375 
L 19.671875 64.59375 
L 19.671875 43.109375 
L 48.578125 43.109375 
L 48.578125 34.8125 
L 19.671875 34.8125 
L 19.671875 0 
L 9.8125 0 
z
" id="BitstreamVeraSans-Roman-46"/>
      <path d="M 34.1875 63.1875 
L 20.796875 26.90625 
L 47.609375 26.90625 
z
M 28.609375 72.90625 
L 39.796875 72.90625 
L 67.578125 0 
L 57.328125 0 
L 50.6875 18.703125 
L 17.828125 18.703125 
L 11.1875 0 
L 0.78125 0 
z
" id="BitstreamVeraSans-Roman-41"/>
      <path d="M 2.984375 54.6875 
L 12.5 54.6875 
L 29.59375 8.796875 
L 46.6875 54.6875 
L 56.203125 54.6875 
L 35.6875 0 
L 23.484375 0 
z
" id="BitstreamVeraSans-Roman-76"/>
      <path d="M 45.40625 27.984375 
Q 45.40625 37.75 41.375 43.109375 
Q 37.359375 48.484375 30.078125 48.484375 
Q 22.859375 48.484375 18.828125 43.109375 
Q 14.796875 37.75 14.796875 27.984375 
Q 14.796875 18.265625 18.828125 12.890625 
Q 22.859375 7.515625 30.078125 7.515625 
Q 37.359375 7.515625 41.375 12.890625 
Q 45.40625 18.265625 45.40625 27.984375 
M 54.390625 6.78125 
Q 54.390625 -7.171875 48.1875 -13.984375 
Q 42 -20.796875 29.203125 -20.796875 
Q 24.46875 -20.796875 20.265625 -20.09375 
Q 16.0625 -19.390625 12.109375 -17.921875 
L 12.109375 -9.1875 
Q 16.0625 -11.328125 19.921875 -12.34375 
Q 23.78125 -13.375 27.78125 -13.375 
Q 36.625 -13.375 41.015625 -8.765625 
Q 45.40625 -4.15625 45.40625 5.171875 
L 45.40625 9.625 
Q 42.625 4.78125 38.28125 2.390625 
Q 33.9375 0 27.875 0 
Q 17.828125 0 11.671875 7.65625 
Q 5.515625 15.328125 5.515625 27.984375 
Q 5.515625 40.671875 11.671875 48.328125 
Q 17.828125 56 27.875 56 
Q 33.9375 56 38.28125 53.609375 
Q 42.625 51.21875 45.40625 46.390625 
L 45.40625 54.6875 
L 54.390625 54.6875 
z
" id="BitstreamVeraSans-Roman-67"/>
      <path d="M 44.28125 53.078125 
L 44.28125 44.578125 
Q 40.484375 46.53125 36.375 47.5 
Q 32.28125 48.484375 27.875 48.484375 
Q 21.1875 48.484375 17.84375 46.4375 
Q 14.5 44.390625 14.5 40.28125 
Q 14.5 37.15625 16.890625 35.375 
Q 19.28125 33.59375 26.515625 31.984375 
L 29.59375 31.296875 
Q 39.15625 29.25 43.1875 25.515625 
Q 47.21875 21.78125 47.21875 15.09375 
Q 47.21875 7.46875 41.1875 3.015625 
Q 35.15625 -1.421875 24.609375 -1.421875 
Q 20.21875 -1.421875 15.453125 -0.5625 
Q 10.6875 0.296875 5.421875 2 
L 5.421875 11.28125 
Q 10.40625 8.6875 15.234375 7.390625 
Q 20.0625 6.109375 24.8125 6.109375 
Q 31.15625 6.109375 34.5625 8.28125 
Q 37.984375 10.453125 37.984375 14.40625 
Q 37.984375 18.0625 35.515625 20.015625 
Q 33.0625 21.96875 24.703125 23.78125 
L 21.578125 24.515625 
Q 13.234375 26.265625 9.515625 29.90625 
Q 5.8125 33.546875 5.8125 39.890625 
Q 5.8125 47.609375 11.28125 51.796875 
Q 16.75 56 26.8125 56 
Q 31.78125 56 36.171875 55.265625 
Q 40.578125 54.546875 44.28125 53.078125 
" id="BitstreamVeraSans-Roman-73"/>
     </defs>
     <g transform="translate(55.9559375 191.308494318)rotate(-90.0)scale(0.14 -0.14)">
      <use xlink:href="#BitstreamVeraSans-Roman-41"/>
      <use x="68.330078125" xlink:href="#BitstreamVeraSans-Roman-76"/>
      <use x="127.509765625" xlink:href="#BitstreamVeraSans-Roman-65"/>
      <use x="189.033203125" xlink:href="#BitstreamVeraSans-Roman-72"/>
      <use x="230.146484375" xlink:href="#BitstreamVeraSans-Roman-61"/>
      <use x="291.42578125" xlink:href="#BitstreamVeraSans-Roman-67"/>
      <use x="354.90234375" xlink:href="#BitstreamVeraSans-Roman-65"/>
      <use x="416.42578125" xlink:href="#BitstreamVeraSans-Roman-20"/>
      <use x="448.212890625" xlink:href="#BitstreamVeraSans-Roman-46"/>
      <use x="505.623046875" xlink:href="#BitstreamVeraSans-Roman-69"/>
      <use x="533.40625" xlink:href="#BitstreamVeraSans-Roman-74"/>
      <use x="572.615234375" xlink:href="#BitstreamVeraSans-Roman-6e"/>
      <use x="635.994140625" xlink:href="#BitstreamVeraSans-Roman-65"/>
      <use x="697.517578125" xlink:href="#BitstreamVeraSans-Roman-73"/>
      <use x="749.6171875" xlink:href="#BitstreamVeraSans-Roman-73"/>
     </g>
    </g>
   </g>
   <g id="text_18">
    <!-- Convergence of Selection Methods -->
    <defs>
     <path d="M 9.8125 72.90625 
L 24.515625 72.90625 
L 43.109375 23.296875 
L 61.8125 72.90625 
L 76.515625 72.90625 
L 76.515625 0 
L 66.890625 0 
L 66.890625 64.015625 
L 48.09375 14.015625 
L 38.1875 14.015625 
L 19.390625 64.015625 
L 19.390625 0 
L 9.8125 0 
z
" id="BitstreamVeraSans-Roman-4d"/>
     <path d="M 9.421875 75.984375 
L 18.40625 75.984375 
L 18.40625 0 
L 9.421875 0 
z
" id="BitstreamVeraSans-Roman-6c"/>
     <path d="M 53.515625 70.515625 
L 53.515625 60.890625 
Q 47.90625 63.578125 42.921875 64.890625 
Q 37.9375 66.21875 33.296875 66.21875 
Q 25.25 66.21875 20.875 63.09375 
Q 16.5 59.96875 16.5 54.203125 
Q 16.5 49.359375 19.40625 46.890625 
Q 22.3125 44.4375 30.421875 42.921875 
L 36.375 41.703125 
Q 47.40625 39.59375 52.65625 34.296875 
Q 57.90625 29 57.90625 20.125 
Q 57.90625 9.515625 50.796875 4.046875 
Q 43.703125 -1.421875 29.984375 -1.421875 
Q 24.8125 -1.421875 18.96875 -0.25 
Q 13.140625 0.921875 6.890625 3.21875 
L 6.890625 13.375 
Q 12.890625 10.015625 18.65625 8.296875 
Q 24.421875 6.59375 29.984375 6.59375 
Q 38.421875 6.59375 43.015625 9.90625 
Q 47.609375 13.234375 47.609375 19.390625 
Q 47.609375 24.75 44.3125 27.78125 
Q 41.015625 30.8125 33.5 32.328125 
L 27.484375 33.5 
Q 16.453125 35.6875 11.515625 40.375 
Q 6.59375 45.0625 6.59375 53.421875 
Q 6.59375 63.09375 13.40625 68.65625 
Q 20.21875 74.21875 32.171875 74.21875 
Q 37.3125 74.21875 42.625 73.28125 
Q 47.953125 72.359375 53.515625 70.515625 
" id="BitstreamVeraSans-Roman-53"/>
     <path d="M 64.40625 67.28125 
L 64.40625 56.890625 
Q 59.421875 61.53125 53.78125 63.8125 
Q 48.140625 66.109375 41.796875 66.109375 
Q 29.296875 66.109375 22.65625 58.46875 
Q 16.015625 50.828125 16.015625 36.375 
Q 16.015625 21.96875 22.65625 14.328125 
Q 29.296875 6.6875 41.796875 6.6875 
Q 48.140625 6.6875 53.78125 8.984375 
Q 59.421875 11.28125 64.40625 15.921875 
L 64.40625 5.609375 
Q 59.234375 2.09375 53.4375 0.328125 
Q 47.65625 -1.421875 41.21875 -1.421875 
Q 24.65625 -1.421875 15.125 8.703125 
Q 5.609375 18.84375 5.609375 36.375 
Q 5.609375 53.953125 15.125 64.078125 
Q 24.65625 74.21875 41.21875 74.21875 
Q 47.75 74.21875 53.53125 72.484375 
Q 59.328125 70.75 64.40625 67.28125 
" id="BitstreamVeraSans-Roman-43"/>
     <path d="M 54.890625 33.015625 
L 54.890625 0 
L 45.90625 0 
L 45.90625 32.71875 
Q 45.90625 40.484375 42.875 44.328125 
Q 39.84375 48.1875 33.796875 48.1875 
Q 26.515625 48.1875 22.3125 43.546875 
Q 18.109375 38.921875 18.109375 30.90625 
L 18.109375 0 
L 9.078125 0 
L 9.078125 75.984375 
L 18.109375 75.984375 
L 18.109375 46.1875 
Q 21.34375 51.125 25.703125 53.5625 
Q 30.078125 56 35.796875 56 
Q 45.21875 56 50.046875 50.171875 
Q 54.890625 44.34375 54.890625 33.015625 
" id="BitstreamVeraSans-Roman-68"/>
     <path d="M 45.40625 46.390625 
L 45.40625 75.984375 
L 54.390625 75.984375 
L 54.390625 0 
L 45.40625 0 
L 45.40625 8.203125 
Q 42.578125 3.328125 38.25 0.953125 
Q 33.9375 -1.421875 27.875 -1.421875 
Q 17.96875 -1.421875 11.734375 6.484375 
Q 5.515625 14.40625 5.515625 27.296875 
Q 5.515625 40.1875 11.734375 48.09375 
Q 17.96875 56 27.875 56 
Q 33.9375 56 38.25 53.625 
Q 42.578125 51.265625 45.40625 46.390625 
M 14.796875 27.296875 
Q 14.796875 17.390625 18.875 11.75 
Q 22.953125 6.109375 30.078125 6.109375 
Q 37.203125 6.109375 41.296875 11.75 
Q 45.40625 17.390625 45.40625 27.296875 
Q 45.40625 37.203125 41.296875 42.84375 
Q 37.203125 48.484375 30.078125 48.484375 
Q 22.953125 48.484375 18.875 42.84375 
Q 14.796875 37.203125 14.796875 27.296875 
" id="BitstreamVeraSans-Roman-64"/>
     <path d="M 37.109375 75.984375 
L 37.109375 68.5 
L 28.515625 68.5 
Q 23.6875 68.5 21.796875 66.546875 
Q 19.921875 64.59375 19.921875 59.515625 
L 19.921875 54.6875 
L 34.71875 54.6875 
L 34.71875 47.703125 
L 19.921875 47.703125 
L 19.921875 0 
L 10.890625 0 
L 10.890625 47.703125 
L 2.296875 47.703125 
L 2.296875 54.6875 
L 10.890625 54.6875 
L 10.890625 58.5 
Q 10.890625 67.625 15.140625 71.796875 
Q 19.390625 75.984375 28.609375 75.984375 
z
" id="BitstreamVeraSans-Roman-66"/>
     <path d="M 48.78125 52.59375 
L 48.78125 44.1875 
Q 44.96875 46.296875 41.140625 47.34375 
Q 37.3125 48.390625 33.40625 48.390625 
Q 24.65625 48.390625 19.8125 42.84375 
Q 14.984375 37.3125 14.984375 27.296875 
Q 14.984375 17.28125 19.8125 11.734375 
Q 24.65625 6.203125 33.40625 6.203125 
Q 37.3125 6.203125 41.140625 7.25 
Q 44.96875 8.296875 48.78125 10.40625 
L 48.78125 2.09375 
Q 45.015625 0.34375 40.984375 -0.53125 
Q 36.96875 -1.421875 32.421875 -1.421875 
Q 20.0625 -1.421875 12.78125 6.34375 
Q 5.515625 14.109375 5.515625 27.296875 
Q 5.515625 40.671875 12.859375 48.328125 
Q 20.21875 56 33.015625 56 
Q 37.15625 56 41.109375 55.140625 
Q 45.0625 54.296875 48.78125 52.59375 
" id="BitstreamVeraSans-Roman-63"/>
    </defs>
    <g transform="translate(215.521875 42.97)scale(0.144 -0.144)">
     <use xlink:href="#BitstreamVeraSans-Roman-43"/>
     <use x="69.82421875" xlink:href="#BitstreamVeraSans-Roman-6f"/>
     <use x="131.005859375" xlink:href="#BitstreamVeraSans-Roman-6e"/>
     <use x="194.384765625" xlink:href="#BitstreamVeraSans-Roman-76"/>
     <use x="253.564453125" xlink:href="#BitstreamVeraSans-Roman-65"/>
     <use x="315.087890625" xlink:href="#BitstreamVeraSans-Roman-72"/>
     <use x="356.185546875" xlink:href="#BitstreamVeraSans-Roman-67"/>
     <use x="419.662109375" xlink:href="#BitstreamVeraSans-Roman-65"/>
     <use x="481.185546875" xlink:href="#BitstreamVeraSans-Roman-6e"/>
     <use x="544.564453125" xlink:href="#BitstreamVeraSans-Roman-63"/>
     <use x="599.544921875" xlink:href="#BitstreamVeraSans-Roman-65"/>
     <use x="661.068359375" xlink:href="#BitstreamVeraSans-Roman-20"/>
     <use x="692.85546875" xlink:href="#BitstreamVeraSans-Roman-6f"/>
     <use x="754.037109375" xlink:href="#BitstreamVeraSans-Roman-66"/>
     <use x="789.2421875" xlink:href="#BitstreamVeraSans-Roman-20"/>
     <use x="821.029296875" xlink:href="#BitstreamVeraSans-Roman-53"/>
     <use x="884.505859375" xlink:href="#BitstreamVeraSans-Roman-65"/>
     <use x="946.029296875" xlink:href="#BitstreamVeraSans-Roman-6c"/>
     <use x="973.8125" xlink:href="#BitstreamVeraSans-Roman-65"/>
     <use x="1035.3359375" xlink:href="#BitstreamVeraSans-Roman-63"/>
     <use x="1090.31640625" xlink:href="#BitstreamVeraSans-Roman-74"/>
     <use x="1129.52539062" xlink:href="#BitstreamVeraSans-Roman-69"/>
     <use x="1157.30859375" xlink:href="#BitstreamVeraSans-Roman-6f"/>
     <use x="1218.49023438" xlink:href="#BitstreamVeraSans-Roman-6e"/>
     <use x="1281.86914062" xlink:href="#BitstreamVeraSans-Roman-20"/>
     <use x="1313.65625" xlink:href="#BitstreamVeraSans-Roman-4d"/>
     <use x="1399.93554688" xlink:href="#BitstreamVeraSans-Roman-65"/>
     <use x="1461.45898438" xlink:href="#BitstreamVeraSans-Roman-74"/>
     <use x="1500.66796875" xlink:href="#BitstreamVeraSans-Roman-68"/>
     <use x="1564.046875" xlink:href="#BitstreamVeraSans-Roman-6f"/>
     <use x="1625.22851562" xlink:href="#BitstreamVeraSans-Roman-64"/>
     <use x="1688.70507812" xlink:href="#BitstreamVeraSans-Roman-73"/>
    </g>
   </g>
   <g id="legend_1">
    <g id="patch_7">
     <path d="M 451.32975 122.8995 
L 591.39 122.8995 
L 591.39 55.17 
L 451.32975 55.17 
z
" style="fill:#ffffff;stroke:#000000;stroke-linejoin:miter;"/>
    </g>
    <g id="line2d_34">
     <path d="M 461.40975 66.83175 
L 481.56975 66.83175 
" style="fill:none;stroke:#0000ff;stroke-linecap:square;"/>
    </g>
    <g id="line2d_35"/>
    <g id="text_19">
     <!-- Bottom Half -->
     <defs>
      <path d="M 52 44.1875 
Q 55.375 50.25 60.0625 53.125 
Q 64.75 56 71.09375 56 
Q 79.640625 56 84.28125 50.015625 
Q 88.921875 44.046875 88.921875 33.015625 
L 88.921875 0 
L 79.890625 0 
L 79.890625 32.71875 
Q 79.890625 40.578125 77.09375 44.375 
Q 74.3125 48.1875 68.609375 48.1875 
Q 61.625 48.1875 57.5625 43.546875 
Q 53.515625 38.921875 53.515625 30.90625 
L 53.515625 0 
L 44.484375 0 
L 44.484375 32.71875 
Q 44.484375 40.625 41.703125 44.40625 
Q 38.921875 48.1875 33.109375 48.1875 
Q 26.21875 48.1875 22.15625 43.53125 
Q 18.109375 38.875 18.109375 30.90625 
L 18.109375 0 
L 9.078125 0 
L 9.078125 54.6875 
L 18.109375 54.6875 
L 18.109375 46.1875 
Q 21.1875 51.21875 25.484375 53.609375 
Q 29.78125 56 35.6875 56 
Q 41.65625 56 45.828125 52.96875 
Q 50 49.953125 52 44.1875 
" id="BitstreamVeraSans-Roman-6d"/>
      <path d="M 19.671875 34.8125 
L 19.671875 8.109375 
L 35.5 8.109375 
Q 43.453125 8.109375 47.28125 11.40625 
Q 51.125 14.703125 51.125 21.484375 
Q 51.125 28.328125 47.28125 31.5625 
Q 43.453125 34.8125 35.5 34.8125 
z
M 19.671875 64.796875 
L 19.671875 42.828125 
L 34.28125 42.828125 
Q 41.5 42.828125 45.03125 45.53125 
Q 48.578125 48.25 48.578125 53.8125 
Q 48.578125 59.328125 45.03125 62.0625 
Q 41.5 64.796875 34.28125 64.796875 
z
M 9.8125 72.90625 
L 35.015625 72.90625 
Q 46.296875 72.90625 52.390625 68.21875 
Q 58.5 63.53125 58.5 54.890625 
Q 58.5 48.1875 55.375 44.234375 
Q 52.25 40.28125 46.1875 39.3125 
Q 53.46875 37.75 57.5 32.78125 
Q 61.53125 27.828125 61.53125 20.40625 
Q 61.53125 10.640625 54.890625 5.3125 
Q 48.25 0 35.984375 0 
L 9.8125 0 
z
" id="BitstreamVeraSans-Roman-42"/>
      <path d="M 9.8125 72.90625 
L 19.671875 72.90625 
L 19.671875 43.015625 
L 55.515625 43.015625 
L 55.515625 72.90625 
L 65.375 72.90625 
L 65.375 0 
L 55.515625 0 
L 55.515625 34.71875 
L 19.671875 34.71875 
L 19.671875 0 
L 9.8125 0 
z
" id="BitstreamVeraSans-Roman-48"/>
     </defs>
     <g transform="translate(497.40975 71.87175)scale(0.144 -0.144)">
      <use xlink:href="#BitstreamVeraSans-Roman-42"/>
      <use x="68.603515625" xlink:href="#BitstreamVeraSans-Roman-6f"/>
      <use x="129.78515625" xlink:href="#BitstreamVeraSans-Roman-74"/>
      <use x="168.994140625" xlink:href="#BitstreamVeraSans-Roman-74"/>
      <use x="208.203125" xlink:href="#BitstreamVeraSans-Roman-6f"/>
      <use x="269.384765625" xlink:href="#BitstreamVeraSans-Roman-6d"/>
      <use x="366.796875" xlink:href="#BitstreamVeraSans-Roman-20"/>
      <use x="398.583984375" xlink:href="#BitstreamVeraSans-Roman-48"/>
      <use x="473.779296875" xlink:href="#BitstreamVeraSans-Roman-61"/>
      <use x="535.05859375" xlink:href="#BitstreamVeraSans-Roman-6c"/>
      <use x="562.841796875" xlink:href="#BitstreamVeraSans-Roman-66"/>
     </g>
    </g>
    <g id="line2d_36">
     <path d="M 461.40975 87.96825 
L 481.56975 87.96825 
" style="fill:none;stroke:#008000;stroke-linecap:square;"/>
    </g>
    <g id="line2d_37"/>
    <g id="text_20">
     <!-- Roulette -->
     <defs>
      <path d="M 44.390625 34.1875 
Q 47.5625 33.109375 50.5625 29.59375 
Q 53.5625 26.078125 56.59375 19.921875 
L 66.609375 0 
L 56 0 
L 46.6875 18.703125 
Q 43.0625 26.03125 39.671875 28.421875 
Q 36.28125 30.8125 30.421875 30.8125 
L 19.671875 30.8125 
L 19.671875 0 
L 9.8125 0 
L 9.8125 72.90625 
L 32.078125 72.90625 
Q 44.578125 72.90625 50.734375 67.671875 
Q 56.890625 62.453125 56.890625 51.90625 
Q 56.890625 45.015625 53.6875 40.46875 
Q 50.484375 35.9375 44.390625 34.1875 
M 19.671875 64.796875 
L 19.671875 38.921875 
L 32.078125 38.921875 
Q 39.203125 38.921875 42.84375 42.21875 
Q 46.484375 45.515625 46.484375 51.90625 
Q 46.484375 58.296875 42.84375 61.546875 
Q 39.203125 64.796875 32.078125 64.796875 
z
" id="BitstreamVeraSans-Roman-52"/>
      <path d="M 8.5 21.578125 
L 8.5 54.6875 
L 17.484375 54.6875 
L 17.484375 21.921875 
Q 17.484375 14.15625 20.5 10.265625 
Q 23.53125 6.390625 29.59375 6.390625 
Q 36.859375 6.390625 41.078125 11.03125 
Q 45.3125 15.671875 45.3125 23.6875 
L 45.3125 54.6875 
L 54.296875 54.6875 
L 54.296875 0 
L 45.3125 0 
L 45.3125 8.40625 
Q 42.046875 3.421875 37.71875 1 
Q 33.40625 -1.421875 27.6875 -1.421875 
Q 18.265625 -1.421875 13.375 4.4375 
Q 8.5 10.296875 8.5 21.578125 
" id="BitstreamVeraSans-Roman-75"/>
     </defs>
     <g transform="translate(497.40975 93.00825)scale(0.144 -0.144)">
      <use xlink:href="#BitstreamVeraSans-Roman-52"/>
      <use x="69.419921875" xlink:href="#BitstreamVeraSans-Roman-6f"/>
      <use x="130.6015625" xlink:href="#BitstreamVeraSans-Roman-75"/>
      <use x="193.98046875" xlink:href="#BitstreamVeraSans-Roman-6c"/>
      <use x="221.763671875" xlink:href="#BitstreamVeraSans-Roman-65"/>
      <use x="283.287109375" xlink:href="#BitstreamVeraSans-Roman-74"/>
      <use x="322.49609375" xlink:href="#BitstreamVeraSans-Roman-74"/>
      <use x="361.705078125" xlink:href="#BitstreamVeraSans-Roman-65"/>
     </g>
    </g>
    <g id="line2d_38">
     <path d="M 461.40975 109.10475 
L 481.56975 109.10475 
" style="fill:none;stroke:#ff0000;stroke-linecap:square;"/>
    </g>
    <g id="line2d_39"/>
    <g id="text_21">
     <!-- Tournament -->
     <defs>
      <path d="M -0.296875 72.90625 
L 61.375 72.90625 
L 61.375 64.59375 
L 35.5 64.59375 
L 35.5 0 
L 25.59375 0 
L 25.59375 64.59375 
L -0.296875 64.59375 
z
" id="BitstreamVeraSans-Roman-54"/>
     </defs>
     <g transform="translate(497.40975 114.14475)scale(0.144 -0.144)">
      <use xlink:href="#BitstreamVeraSans-Roman-54"/>
      <use x="60.818359375" xlink:href="#BitstreamVeraSans-Roman-6f"/>
      <use x="122.0" xlink:href="#BitstreamVeraSans-Roman-75"/>
      <use x="185.37890625" xlink:href="#BitstreamVeraSans-Roman-72"/>
      <use x="226.4765625" xlink:href="#BitstreamVeraSans-Roman-6e"/>
      <use x="289.85546875" xlink:href="#BitstreamVeraSans-Roman-61"/>
      <use x="351.134765625" xlink:href="#BitstreamVeraSans-Roman-6d"/>
      <use x="448.546875" xlink:href="#BitstreamVeraSans-Roman-65"/>
      <use x="510.0703125" xlink:href="#BitstreamVeraSans-Roman-6e"/>
      <use x="573.44921875" xlink:href="#BitstreamVeraSans-Roman-74"/>
     </g>
    </g>
   </g>
  </g>
  <g id="axes_2">
   <g id="patch_8">
    <path d="M 83.1375 431.73 
L 598.59 431.73 
L 598.59 257.293636 
L 83.1375 257.293636 
z
" style="fill:#ffffff;"/>
   </g>
   <g id="line2d_40">
    <path clip-path="url(#p049bf9e310)" d="M 88.292025 431.73 
L 93.44655 431.73 
L 98.601075 431.73 
L 103.7556 431.73 
L 108.910125 431.73 
L 114.06465 431.73 
L 119.219175 431.73 
L 124.3737 431.73 
L 129.528225 431.73 
L 134.68275 431.468345 
L 139.837275 431.118781 
L 144.9918 430.468766 
L 150.146325 429.551097 
L 155.30085 427.068834 
L 160.455375 424.158019 
L 165.6099 418.476248 
L 170.764425 415.365386 
L 175.91895 413.268475 
L 181.073475 410.985738 
L 186.228 408.304344 
L 191.382525 401.62803 
L 196.53705 398.99735 
L 201.691575 392.506161 
L 206.8461 381.573816 
L 212.000625 374.094383 
L 217.15515 360.7208 
L 222.309675 340.912435 
L 227.4642 316.035751 
L 232.618725 304.587594 
L 237.77325 315.266113 
L 242.927775 312.817094 
L 248.0823 299.856718 
L 253.236825 298.82115 
L 258.39135 302.116361 
L 263.545875 315.719876 
L 268.7004 325.998147 
L 273.854925 321.14226 
L 279.00945 321.962081 
L 284.163975 313.44552 
L 289.3185 300.891066 
L 294.473025 299.072229 
L 299.62755 307.852405 
L 304.782075 304.042655 
L 309.9366 299.998662 
L 315.091125 300.608567 
L 320.24565 290.518661 
L 325.400175 303.367311 
L 330.5547 314.320702 
L 335.709225 306.523886 
L 340.86375 300.225827 
L 346.018275 295.247788 
L 351.1728 305.61198 
L 356.327325 312.926524 
L 361.48185 300.33069 
L 366.636375 292.966229 
L 371.7909 302.598776 
L 376.945425 303.521646 
L 382.09995 295.289535 
L 387.254475 293.17338 
L 392.409 300.895621 
L 397.563525 312.657393 
L 402.71805 309.278527 
L 407.872575 310.599292 
L 413.0271 300.406943 
L 418.181625 290.634205 
L 423.33615 294.072352 
L 428.490675 299.440053 
L 433.6452 297.466052 
L 438.799725 286.988012 
L 443.95425 294.202549 
L 449.108775 293.784734 
L 454.2633 285.191128 
L 459.417825 300.984722 
L 464.57235 304.832874 
L 469.726875 296.305797 
L 474.8814 294.722352 
L 480.035925 289.552248 
L 485.19045 295.624072 
L 490.344975 296.957002 
L 495.4995 292.285256 
L 500.654025 299.978501 
L 505.80855 295.08996 
L 510.963075 296.541277 
L 516.1176 302.877672 
L 521.272125 293.752843 
L 526.42665 286.674419 
L 531.581175 284.472771 
L 536.7357 294.584109 
L 541.890225 294.215342 
L 547.04475 286.655445 
L 552.199275 287.107582 
L 557.3538 286.942725 
L 562.508325 294.853967 
L 567.66285 302.291838 
L 572.817375 306.758488 
L 577.9719 299.788748 
L 583.126425 292.970453 
L 588.28095 292.051129 
L 593.435475 286.264825 
L 598.59 289.158312 
" style="fill:none;stroke:#0000ff;stroke-linecap:square;"/>
   </g>
   <g id="line2d_41">
    <path clip-path="url(#p049bf9e310)" d="M 88.292025 431.73 
L 93.44655 431.73 
L 98.601075 431.73 
L 103.7556 431.4102 
L 108.910125 424.745221 
L 114.06465 420.077638 
L 119.219175 419.901258 
L 124.3737 413.741146 
L 129.528225 387.396121 
L 134.68275 380.306139 
L 139.837275 371.274656 
L 144.9918 366.833668 
L 150.146325 377.940065 
L 155.30085 367.072849 
L 160.455375 352.439697 
L 165.6099 350.51272 
L 170.764425 361.39692 
L 175.91895 355.559316 
L 181.073475 349.729565 
L 186.228 356.234615 
L 191.382525 363.184955 
L 196.53705 350.160144 
L 201.691575 345.327043 
L 206.8461 363.094734 
L 212.000625 349.497232 
L 217.15515 345.348469 
L 222.309675 347.416274 
L 227.4642 333.836308 
L 232.618725 335.431261 
L 237.77325 330.414753 
L 242.927775 313.976611 
L 248.0823 321.586792 
L 253.236825 339.784766 
L 258.39135 341.037768 
L 263.545875 321.094658 
L 268.7004 310.359362 
L 273.854925 313.329188 
L 279.00945 322.333774 
L 284.163975 322.446423 
L 289.3185 319.275052 
L 294.473025 330.426012 
L 299.62755 317.662455 
L 304.782075 308.443865 
L 309.9366 319.83879 
L 315.091125 312.848447 
L 320.24565 296.289237 
L 325.400175 309.923235 
L 330.5547 333.912365 
L 335.709225 321.070683 
L 340.86375 303.924237 
L 346.018275 303.28145 
L 351.1728 318.30432 
L 356.327325 315.940014 
L 361.48185 307.772878 
L 366.636375 316.804347 
L 371.7909 315.196887 
L 376.945425 315.592271 
L 382.09995 308.597348 
L 387.254475 294.570887 
L 392.409 294.189312 
L 397.563525 298.082344 
L 402.71805 304.479367 
L 407.872575 302.819544 
L 413.0271 304.128979 
L 418.181625 319.414036 
L 423.33615 317.708884 
L 428.490675 308.127232 
L 433.6452 306.904046 
L 438.799725 309.878587 
L 443.95425 307.848506 
L 449.108775 300.522218 
L 454.2633 299.512475 
L 459.417825 302.723747 
L 464.57235 299.316046 
L 469.726875 292.351874 
L 474.8814 297.749996 
L 480.035925 304.013268 
L 485.19045 300.042043 
L 490.344975 298.003301 
L 495.4995 301.532859 
L 500.654025 309.909788 
L 505.80855 304.847445 
L 510.963075 301.007531 
L 516.1176 310.463838 
L 521.272125 306.533286 
L 526.42665 300.911356 
L 531.581175 304.748741 
L 536.7357 299.556953 
L 541.890225 286.961056 
L 547.04475 293.133939 
L 552.199275 306.143608 
L 557.3538 306.205437 
L 562.508325 300.763136 
L 567.66285 300.288178 
L 572.817375 300.712755 
L 577.9719 299.211046 
L 583.126425 294.830651 
L 588.28095 292.863532 
L 593.435475 307.7012 
L 598.59 310.236102 
" style="fill:none;stroke:#008000;stroke-linecap:square;"/>
   </g>
   <g id="line2d_42">
    <path clip-path="url(#p049bf9e310)" d="M 88.292025 431.73 
L 93.44655 431.73 
L 98.601075 431.73 
L 103.7556 431.642782 
L 108.910125 431.534974 
L 114.06465 431.095042 
L 119.219175 430.712455 
L 124.3737 430.792433 
L 129.528225 430.558041 
L 134.68275 430.288626 
L 139.837275 428.557874 
L 144.9918 426.798594 
L 150.146325 425.989995 
L 155.30085 422.511195 
L 160.455375 419.242257 
L 165.6099 416.37737 
L 170.764425 410.891161 
L 175.91895 399.250441 
L 181.073475 376.685683 
L 186.228 364.506889 
L 191.382525 345.483747 
L 196.53705 343.798841 
L 201.691575 361.596331 
L 206.8461 352.46546 
L 212.000625 344.29257 
L 217.15515 326.508373 
L 222.309675 313.647354 
L 227.4642 313.499611 
L 232.618725 323.190155 
L 237.77325 320.035514 
L 242.927775 298.696539 
L 248.0823 305.271453 
L 253.236825 325.822432 
L 258.39135 316.507094 
L 263.545875 299.89977 
L 268.7004 297.220419 
L 273.854925 311.433926 
L 279.00945 330.181361 
L 284.163975 320.085787 
L 289.3185 307.152549 
L 294.473025 299.754186 
L 299.62755 291.806032 
L 304.782075 290.206275 
L 309.9366 291.77409 
L 315.091125 304.390014 
L 320.24565 298.534913 
L 325.400175 284.084067 
L 330.5547 285.084648 
L 335.709225 292.854901 
L 340.86375 300.133874 
L 346.018275 297.776779 
L 351.1728 302.410702 
L 356.327325 295.575884 
L 361.48185 285.913508 
L 366.636375 290.448067 
L 371.7909 303.639625 
L 376.945425 305.176365 
L 382.09995 290.512885 
L 387.254475 287.258155 
L 392.409 300.523484 
L 397.563525 307.46005 
L 402.71805 304.578052 
L 407.872575 293.555301 
L 413.0271 293.817776 
L 418.181625 296.665277 
L 423.33615 296.665277 
L 428.490675 295.412468 
L 433.6452 290.093324 
L 438.799725 288.750573 
L 443.95425 289.476507 
L 449.108775 297.239916 
L 454.2633 288.140565 
L 459.417825 282.97773 
L 464.57235 289.454619 
L 469.726875 291.712712 
L 474.8814 296.853769 
L 480.035925 292.047934 
L 485.19045 296.594103 
L 490.344975 301.72239 
L 495.4995 287.766246 
L 500.654025 295.910168 
L 505.80855 301.170726 
L 510.963075 300.804137 
L 516.1176 306.976112 
L 521.272125 301.462522 
L 526.42665 293.268152 
L 531.581175 296.854123 
L 536.7357 297.722219 
L 541.890225 294.353663 
L 547.04475 299.721143 
L 552.199275 304.037174 
L 557.3538 298.168809 
L 562.508325 291.641387 
L 567.66285 299.651512 
L 572.817375 305.31778 
L 577.9719 290.990486 
L 583.126425 291.009095 
L 588.28095 297.787986 
L 593.435475 293.831128 
L 598.59 302.07666 
" style="fill:none;stroke:#ff0000;stroke-linecap:square;"/>
   </g>
   <g id="patch_9">
    <path d="M 83.1375 257.293636 
L 598.59 257.293636 
" style="fill:none;stroke:#000000;stroke-linecap:square;stroke-linejoin:miter;"/>
   </g>
   <g id="patch_10">
    <path d="M 598.59 431.73 
L 598.59 257.293636 
" style="fill:none;stroke:#000000;stroke-linecap:square;stroke-linejoin:miter;"/>
   </g>
   <g id="patch_11">
    <path d="M 83.1375 431.73 
L 598.59 431.73 
" style="fill:none;stroke:#000000;stroke-linecap:square;stroke-linejoin:miter;"/>
   </g>
   <g id="patch_12">
    <path d="M 83.1375 431.73 
L 83.1375 257.293636 
" style="fill:none;stroke:#000000;stroke-linecap:square;stroke-linejoin:miter;"/>
   </g>
   <g id="matplotlib.axis_3">
    <g id="xtick_7">
     <g id="line2d_43">
      <g>
       <use style="stroke:#000000;stroke-width:0.5;" x="83.1375" xlink:href="#m99935f2d86" y="431.73"/>
      </g>
     </g>
     <g id="line2d_44">
      <g>
       <use style="stroke:#000000;stroke-width:0.5;" x="83.1375" xlink:href="#meb8d34f35a" y="257.293636364"/>
      </g>
     </g>
     <g id="text_22">
      <!-- 0 -->
      <g transform="translate(79.32 444.848125)scale(0.12 -0.12)">
       <use xlink:href="#BitstreamVeraSans-Roman-30"/>
      </g>
     </g>
    </g>
    <g id="xtick_8">
     <g id="line2d_45">
      <g>
       <use style="stroke:#000000;stroke-width:0.5;" x="186.228" xlink:href="#m99935f2d86" y="431.73"/>
      </g>
     </g>
     <g id="line2d_46">
      <g>
       <use style="stroke:#000000;stroke-width:0.5;" x="186.228" xlink:href="#meb8d34f35a" y="257.293636364"/>
      </g>
     </g>
     <g id="text_23">
      <!-- 20 -->
      <g transform="translate(178.593 444.848125)scale(0.12 -0.12)">
       <use xlink:href="#BitstreamVeraSans-Roman-32"/>
       <use x="63.623046875" xlink:href="#BitstreamVeraSans-Roman-30"/>
      </g>
     </g>
    </g>
    <g id="xtick_9">
     <g id="line2d_47">
      <g>
       <use style="stroke:#000000;stroke-width:0.5;" x="289.3185" xlink:href="#m99935f2d86" y="431.73"/>
      </g>
     </g>
     <g id="line2d_48">
      <g>
       <use style="stroke:#000000;stroke-width:0.5;" x="289.3185" xlink:href="#meb8d34f35a" y="257.293636364"/>
      </g>
     </g>
     <g id="text_24">
      <!-- 40 -->
      <g transform="translate(281.6835 444.848125)scale(0.12 -0.12)">
       <use xlink:href="#BitstreamVeraSans-Roman-34"/>
       <use x="63.623046875" xlink:href="#BitstreamVeraSans-Roman-30"/>
      </g>
     </g>
    </g>
    <g id="xtick_10">
     <g id="line2d_49">
      <g>
       <use style="stroke:#000000;stroke-width:0.5;" x="392.409" xlink:href="#m99935f2d86" y="431.73"/>
      </g>
     </g>
     <g id="line2d_50">
      <g>
       <use style="stroke:#000000;stroke-width:0.5;" x="392.409" xlink:href="#meb8d34f35a" y="257.293636364"/>
      </g>
     </g>
     <g id="text_25">
      <!-- 60 -->
      <g transform="translate(384.774 444.848125)scale(0.12 -0.12)">
       <use xlink:href="#BitstreamVeraSans-Roman-36"/>
       <use x="63.623046875" xlink:href="#BitstreamVeraSans-Roman-30"/>
      </g>
     </g>
    </g>
    <g id="xtick_11">
     <g id="line2d_51">
      <g>
       <use style="stroke:#000000;stroke-width:0.5;" x="495.4995" xlink:href="#m99935f2d86" y="431.73"/>
      </g>
     </g>
     <g id="line2d_52">
      <g>
       <use style="stroke:#000000;stroke-width:0.5;" x="495.4995" xlink:href="#meb8d34f35a" y="257.293636364"/>
      </g>
     </g>
     <g id="text_26">
      <!-- 80 -->
      <g transform="translate(487.8645 444.848125)scale(0.12 -0.12)">
       <use xlink:href="#BitstreamVeraSans-Roman-38"/>
       <use x="63.623046875" xlink:href="#BitstreamVeraSans-Roman-30"/>
      </g>
     </g>
    </g>
    <g id="xtick_12">
     <g id="line2d_53">
      <g>
       <use style="stroke:#000000;stroke-width:0.5;" x="598.59" xlink:href="#m99935f2d86" y="431.73"/>
      </g>
     </g>
     <g id="line2d_54">
      <g>
       <use style="stroke:#000000;stroke-width:0.5;" x="598.59" xlink:href="#meb8d34f35a" y="257.293636364"/>
      </g>
     </g>
     <g id="text_27">
      <!-- 100 -->
      <g transform="translate(587.1375 444.848125)scale(0.12 -0.12)">
       <use xlink:href="#BitstreamVeraSans-Roman-31"/>
       <use x="63.623046875" xlink:href="#BitstreamVeraSans-Roman-30"/>
       <use x="127.24609375" xlink:href="#BitstreamVeraSans-Roman-30"/>
      </g>
     </g>
    </g>
   </g>
   <g id="matplotlib.axis_4">
    <g id="ytick_10">
     <g id="line2d_55">
      <g>
       <use style="stroke:#000000;stroke-width:0.5;" x="83.1375" xlink:href="#mac223dcd73" y="431.73"/>
      </g>
     </g>
     <g id="line2d_56">
      <g>
       <use style="stroke:#000000;stroke-width:0.5;" x="598.59" xlink:href="#m60b8f06431" y="431.73"/>
      </g>
     </g>
     <g id="text_28">
      <!-- 0 -->
      <g transform="translate(71.5025 435.04125)scale(0.12 -0.12)">
       <use xlink:href="#BitstreamVeraSans-Roman-30"/>
      </g>
     </g>
    </g>
    <g id="ytick_11">
     <g id="line2d_57">
      <g>
       <use style="stroke:#000000;stroke-width:0.5;" x="83.1375" xlink:href="#mac223dcd73" y="402.657272727"/>
      </g>
     </g>
     <g id="line2d_58">
      <g>
       <use style="stroke:#000000;stroke-width:0.5;" x="598.59" xlink:href="#m60b8f06431" y="402.657272727"/>
      </g>
     </g>
     <g id="text_29">
      <!-- 20 -->
      <g transform="translate(63.8675 405.968522727)scale(0.12 -0.12)">
       <use xlink:href="#BitstreamVeraSans-Roman-32"/>
       <use x="63.623046875" xlink:href="#BitstreamVeraSans-Roman-30"/>
      </g>
     </g>
    </g>
    <g id="ytick_12">
     <g id="line2d_59">
      <g>
       <use style="stroke:#000000;stroke-width:0.5;" x="83.1375" xlink:href="#mac223dcd73" y="373.584545455"/>
      </g>
     </g>
     <g id="line2d_60">
      <g>
       <use style="stroke:#000000;stroke-width:0.5;" x="598.59" xlink:href="#m60b8f06431" y="373.584545455"/>
      </g>
     </g>
     <g id="text_30">
      <!-- 40 -->
      <g transform="translate(63.8675 376.895795455)scale(0.12 -0.12)">
       <use xlink:href="#BitstreamVeraSans-Roman-34"/>
       <use x="63.623046875" xlink:href="#BitstreamVeraSans-Roman-30"/>
      </g>
     </g>
    </g>
    <g id="ytick_13">
     <g id="line2d_61">
      <g>
       <use style="stroke:#000000;stroke-width:0.5;" x="83.1375" xlink:href="#mac223dcd73" y="344.511818182"/>
      </g>
     </g>
     <g id="line2d_62">
      <g>
       <use style="stroke:#000000;stroke-width:0.5;" x="598.59" xlink:href="#m60b8f06431" y="344.511818182"/>
      </g>
     </g>
     <g id="text_31">
      <!-- 60 -->
      <g transform="translate(63.8675 347.823068182)scale(0.12 -0.12)">
       <use xlink:href="#BitstreamVeraSans-Roman-36"/>
       <use x="63.623046875" xlink:href="#BitstreamVeraSans-Roman-30"/>
      </g>
     </g>
    </g>
    <g id="ytick_14">
     <g id="line2d_63">
      <g>
       <use style="stroke:#000000;stroke-width:0.5;" x="83.1375" xlink:href="#mac223dcd73" y="315.439090909"/>
      </g>
     </g>
     <g id="line2d_64">
      <g>
       <use style="stroke:#000000;stroke-width:0.5;" x="598.59" xlink:href="#m60b8f06431" y="315.439090909"/>
      </g>
     </g>
     <g id="text_32">
      <!-- 80 -->
      <g transform="translate(63.8675 318.750340909)scale(0.12 -0.12)">
       <use xlink:href="#BitstreamVeraSans-Roman-38"/>
       <use x="63.623046875" xlink:href="#BitstreamVeraSans-Roman-30"/>
      </g>
     </g>
    </g>
    <g id="ytick_15">
     <g id="line2d_65">
      <g>
       <use style="stroke:#000000;stroke-width:0.5;" x="83.1375" xlink:href="#mac223dcd73" y="286.366363636"/>
      </g>
     </g>
     <g id="line2d_66">
      <g>
       <use style="stroke:#000000;stroke-width:0.5;" x="598.59" xlink:href="#m60b8f06431" y="286.366363636"/>
      </g>
     </g>
     <g id="text_33">
      <!-- 100 -->
      <g transform="translate(56.2325 289.677613636)scale(0.12 -0.12)">
       <use xlink:href="#BitstreamVeraSans-Roman-31"/>
       <use x="63.623046875" xlink:href="#BitstreamVeraSans-Roman-30"/>
       <use x="127.24609375" xlink:href="#BitstreamVeraSans-Roman-30"/>
      </g>
     </g>
    </g>
    <g id="ytick_16">
     <g id="line2d_67">
      <g>
       <use style="stroke:#000000;stroke-width:0.5;" x="83.1375" xlink:href="#mac223dcd73" y="257.293636364"/>
      </g>
     </g>
     <g id="line2d_68">
      <g>
       <use style="stroke:#000000;stroke-width:0.5;" x="598.59" xlink:href="#m60b8f06431" y="257.293636364"/>
      </g>
     </g>
     <g id="text_34">
      <!-- 120 -->
      <g transform="translate(56.2325 260.604886364)scale(0.12 -0.12)">
       <use xlink:href="#BitstreamVeraSans-Roman-31"/>
       <use x="63.623046875" xlink:href="#BitstreamVeraSans-Roman-32"/>
       <use x="127.24609375" xlink:href="#BitstreamVeraSans-Roman-30"/>
      </g>
     </g>
    </g>
    <g id="text_35">
     <!-- Distance between Generations -->
     <defs>
      <path d="M 4.203125 54.6875 
L 13.1875 54.6875 
L 24.421875 12.015625 
L 35.59375 54.6875 
L 46.1875 54.6875 
L 57.421875 12.015625 
L 68.609375 54.6875 
L 77.59375 54.6875 
L 63.28125 0 
L 52.6875 0 
L 40.921875 44.828125 
L 29.109375 0 
L 18.5 0 
z
" id="BitstreamVeraSans-Roman-77"/>
      <path d="M 19.671875 64.796875 
L 19.671875 8.109375 
L 31.59375 8.109375 
Q 46.6875 8.109375 53.6875 14.9375 
Q 60.6875 21.78125 60.6875 36.53125 
Q 60.6875 51.171875 53.6875 57.984375 
Q 46.6875 64.796875 31.59375 64.796875 
z
M 9.8125 72.90625 
L 30.078125 72.90625 
Q 51.265625 72.90625 61.171875 64.09375 
Q 71.09375 55.28125 71.09375 36.53125 
Q 71.09375 17.671875 61.125 8.828125 
Q 51.171875 0 30.078125 0 
L 9.8125 0 
z
" id="BitstreamVeraSans-Roman-44"/>
      <path d="M 48.6875 27.296875 
Q 48.6875 37.203125 44.609375 42.84375 
Q 40.53125 48.484375 33.40625 48.484375 
Q 26.265625 48.484375 22.1875 42.84375 
Q 18.109375 37.203125 18.109375 27.296875 
Q 18.109375 17.390625 22.1875 11.75 
Q 26.265625 6.109375 33.40625 6.109375 
Q 40.53125 6.109375 44.609375 11.75 
Q 48.6875 17.390625 48.6875 27.296875 
M 18.109375 46.390625 
Q 20.953125 51.265625 25.265625 53.625 
Q 29.59375 56 35.59375 56 
Q 45.5625 56 51.78125 48.09375 
Q 58.015625 40.1875 58.015625 27.296875 
Q 58.015625 14.40625 51.78125 6.484375 
Q 45.5625 -1.421875 35.59375 -1.421875 
Q 29.59375 -1.421875 25.265625 0.953125 
Q 20.953125 3.328125 18.109375 8.203125 
L 18.109375 0 
L 9.078125 0 
L 9.078125 75.984375 
L 18.109375 75.984375 
z
" id="BitstreamVeraSans-Roman-62"/>
     </defs>
     <g transform="translate(48.3209375 452.536036932)rotate(-90.0)scale(0.14 -0.14)">
      <use xlink:href="#BitstreamVeraSans-Roman-44"/>
      <use x="77.001953125" xlink:href="#BitstreamVeraSans-Roman-69"/>
      <use x="104.78515625" xlink:href="#BitstreamVeraSans-Roman-73"/>
      <use x="156.884765625" xlink:href="#BitstreamVeraSans-Roman-74"/>
      <use x="196.09375" xlink:href="#BitstreamVeraSans-Roman-61"/>
      <use x="257.373046875" xlink:href="#BitstreamVeraSans-Roman-6e"/>
      <use x="320.751953125" xlink:href="#BitstreamVeraSans-Roman-63"/>
      <use x="375.732421875" xlink:href="#BitstreamVeraSans-Roman-65"/>
      <use x="437.255859375" xlink:href="#BitstreamVeraSans-Roman-20"/>
      <use x="469.04296875" xlink:href="#BitstreamVeraSans-Roman-62"/>
      <use x="532.51953125" xlink:href="#BitstreamVeraSans-Roman-65"/>
      <use x="594.04296875" xlink:href="#BitstreamVeraSans-Roman-74"/>
      <use x="633.251953125" xlink:href="#BitstreamVeraSans-Roman-77"/>
      <use x="715.0390625" xlink:href="#BitstreamVeraSans-Roman-65"/>
      <use x="776.5625" xlink:href="#BitstreamVeraSans-Roman-65"/>
      <use x="838.0859375" xlink:href="#BitstreamVeraSans-Roman-6e"/>
      <use x="901.46484375" xlink:href="#BitstreamVeraSans-Roman-20"/>
      <use x="933.251953125" xlink:href="#BitstreamVeraSans-Roman-47"/>
      <use x="1010.7421875" xlink:href="#BitstreamVeraSans-Roman-65"/>
      <use x="1072.265625" xlink:href="#BitstreamVeraSans-Roman-6e"/>
      <use x="1135.64453125" xlink:href="#BitstreamVeraSans-Roman-65"/>
      <use x="1197.16796875" xlink:href="#BitstreamVeraSans-Roman-72"/>
      <use x="1238.28125" xlink:href="#BitstreamVeraSans-Roman-61"/>
      <use x="1299.56054688" xlink:href="#BitstreamVeraSans-Roman-74"/>
      <use x="1338.76953125" xlink:href="#BitstreamVeraSans-Roman-69"/>
      <use x="1366.55273438" xlink:href="#BitstreamVeraSans-Roman-6f"/>
      <use x="1427.734375" xlink:href="#BitstreamVeraSans-Roman-6e"/>
      <use x="1491.11328125" xlink:href="#BitstreamVeraSans-Roman-73"/>
     </g>
    </g>
   </g>
  </g>
 </g>
 <defs>
  <clipPath id="p049bf9e310">
   <rect height="174.436363636" width="515.4525" x="83.1375" y="257.293636364"/>
  </clipPath>
  <clipPath id="p57b729b38e">
   <rect height="174.436363636" width="515.4525" x="83.1375" y="47.97"/>
  </clipPath>
 </defs>
</svg>
